<svg width="340" height="238" viewBox="0 0 340 238" fill="none" xmlns="http://www.w3.org/2000/svg">
<g clip-path="url(#clip0_5322_68363)">
<mask id="mask0_5322_68363" style="mask-type:alpha" maskUnits="userSpaceOnUse" x="0" y="-23" width="340" height="261">
<rect y="-23" width="340" height="261" fill="url(#paint0_radial_5322_68363)"/>
</mask>
<g mask="url(#mask0_5322_68363)">
<g style="mix-blend-mode:plus-lighter">
<rect x="122" y="160" width="95" height="6" rx="3" fill="#373737"/>
<rect width="95" height="6" rx="3" transform="matrix(1 0 0 -1 122 97)" fill="#373737"/>
<rect x="149" y="173" width="41" height="4" rx="2" fill="#373737"/>
<rect width="41" height="4" rx="2" transform="matrix(1 0 0 -1 149 84)" fill="#373737"/>
<path d="M285 121H362.611C365.78 121 368.819 119.747 371.068 117.514L433 56" stroke="#373737"/>
<path d="M395 74L364.515 104.485C362.264 106.736 359.212 108 356.029 108H309.5" stroke="#373737"/>
<path d="M-54.5 74L-24.0147 104.485C-21.7643 106.736 -18.712 108 -15.5294 108H31" stroke="#373737"/>
<path d="M395.5 183L365.015 152.515C362.764 150.264 359.712 149 356.529 149H310" stroke="#373737"/>
<path d="M-55 183L-24.5147 152.515C-22.2643 150.264 -19.212 149 -16.0294 149H30.5" stroke="#373737"/>
<path d="M285 136H362.611C365.78 136 368.819 137.253 371.068 139.486L433 201" stroke="#373737"/>
<path d="M55 121H-22.0294C-25.212 121 -28.2643 119.736 -30.5147 117.485L-92 56" stroke="#373737"/>
<path d="M55 136H-22.0294C-25.212 136 -28.2643 137.264 -30.5147 139.515L-92 201" stroke="#373737"/>
<path d="M85.5 159.978C68.103 159.978 54 145.875 54 128.478C54 111.081 68.103 96.9775 85.5 96.9775" stroke="#373737"/>
<path d="M254.5 159.978C271.897 159.978 286 145.875 286 128.478C286 111.081 271.897 96.9775 254.5 96.9775" stroke="#373737"/>
</g>
<path opacity="0.5" d="M324 121.021H306" stroke="#FA12E3"/>
<path opacity="0.5" d="M31 136.021H13" stroke="#FA12E3"/>
<g filter="url(#filter0_b_5322_68363)">
<g clip-path="url(#clip1_5322_68363)">
<rect x="62" y="105.979" width="216" height="45" rx="22.5" fill="white" fill-opacity="0.9"/>
<g style="mix-blend-mode:plus-lighter" filter="url(#filter1_f_5322_68363)">
<ellipse cx="171.793" cy="128.538" rx="100.411" ry="35.6598" fill="#FA12E3" fill-opacity="0.45"/>
</g>
<g filter="url(#filter2_d_5322_68363)">
<path fill-rule="evenodd" clip-rule="evenodd" d="M101.339 118.732C101.116 117.965 99.9448 117.965 99.7225 118.732L99.4079 119.819C98.7291 122.161 97.8016 123.99 95.2816 124.621L94.1121 124.913C93.2862 125.12 93.2862 126.209 94.1121 126.415L95.2816 126.708C97.8016 127.338 98.7291 129.168 99.4079 131.509L99.7225 132.596C99.9448 133.363 101.116 133.363 101.339 132.596L101.654 131.509C102.332 129.168 103.26 127.338 105.78 126.708L106.95 126.415C107.775 126.209 107.775 125.12 106.95 124.913C106.124 124.707 105.78 124.621 105.78 124.621C103.26 123.99 102.332 122.161 101.654 119.819L101.339 118.732Z" fill="url(#paint1_linear_5322_68363)"/>
<path fill-rule="evenodd" clip-rule="evenodd" d="M91.6314 129.778C91.498 129.298 90.7951 129.298 90.6617 129.778L90.4729 130.457C90.0656 131.92 89.5091 133.064 87.9971 133.458L87.2954 133.641C86.7999 133.77 86.7999 134.45 87.2954 134.579L87.9971 134.762C89.5091 135.156 90.0656 136.3 90.4729 137.763L90.6617 138.442C90.7951 138.922 91.498 138.922 91.6314 138.442L91.8204 137.763C92.2274 136.3 92.7841 135.156 94.2962 134.762L94.9979 134.579C95.4934 134.45 95.4934 133.77 94.9979 133.641C94.5024 133.512 94.2962 133.458 94.2962 133.458C92.7841 133.064 92.2274 131.92 91.8204 130.457L91.6314 129.778Z" fill="url(#paint2_linear_5322_68363)"/>
</g>
<path d="M124.515 136.364C120.106 136.364 117.356 133.175 117.356 128.062V128.04C117.356 122.915 120.095 119.726 124.504 119.726C128.001 119.726 130.685 121.936 131.103 125.092L131.092 125.147H128.65V125.114C128.188 123.168 126.594 121.903 124.504 121.903C121.656 121.903 119.875 124.268 119.875 128.04V128.062C119.875 131.823 121.656 134.187 124.515 134.187C126.616 134.187 128.188 133.065 128.639 131.273L128.661 131.229H131.103V131.295C130.641 134.341 128.056 136.364 124.515 136.364ZM137.349 136.177C135.073 136.177 133.39 134.792 133.39 132.625V132.603C133.39 130.47 134.996 129.227 137.844 129.051L141.077 128.864V127.809C141.077 126.5 140.252 125.774 138.636 125.774C137.316 125.774 136.447 126.258 136.161 127.105L136.15 127.149H133.852L133.863 127.072C134.149 125.114 136.029 123.806 138.746 123.806C141.748 123.806 143.441 125.301 143.441 127.809V135.979H141.077V134.286H140.89C140.186 135.496 138.933 136.177 137.349 136.177ZM135.765 132.526C135.765 133.626 136.7 134.275 137.987 134.275C139.768 134.275 141.077 133.109 141.077 131.57V130.547L138.163 130.734C136.513 130.833 135.765 131.427 135.765 132.504V132.526ZM151.315 136.056C148.687 136.056 147.609 135.133 147.609 132.834V125.917H145.74V124.037H147.609V121.023H150.04V124.037H152.602V125.917H150.04V132.262C150.04 133.549 150.523 134.077 151.7 134.077C152.063 134.077 152.272 134.066 152.602 134.033V135.936C152.217 136.001 151.777 136.056 151.315 136.056ZM160.278 136.21C156.792 136.21 154.658 133.835 154.658 129.975V129.953C154.658 126.17 156.781 123.806 160.267 123.806C163.269 123.806 165.062 125.499 165.391 127.82V127.875L163.104 127.886L163.093 127.853C162.829 126.676 161.861 125.796 160.278 125.796C158.287 125.796 157.089 127.38 157.089 129.953V129.975C157.089 132.614 158.309 134.22 160.278 134.22C161.773 134.22 162.697 133.538 163.082 132.251L163.104 132.197H165.391L165.369 132.295C164.941 134.616 163.236 136.21 160.278 136.21ZM168.207 135.979V119.352H170.593V125.851H170.769C171.352 124.576 172.496 123.806 174.233 123.806C176.905 123.806 178.379 125.4 178.379 128.249V135.979H176.004V128.809C176.004 126.83 175.179 125.851 173.43 125.851C171.682 125.851 170.593 127.05 170.593 128.974V135.979H168.207ZM187.869 135.979V124.037H190.256V125.873H190.432C190.96 124.565 192.125 123.806 193.687 123.806C195.315 123.806 196.469 124.653 196.997 125.939H197.184C197.789 124.653 199.163 123.806 200.824 123.806C203.232 123.806 204.64 125.257 204.64 127.743V135.979H202.265V128.315C202.265 126.665 201.517 125.851 199.955 125.851C198.438 125.851 197.437 126.984 197.437 128.425V135.979H195.062V128.073C195.062 126.709 194.171 125.851 192.763 125.851C191.323 125.851 190.256 127.083 190.256 128.644V135.979H187.869ZM212.987 136.21C209.49 136.21 207.378 133.824 207.378 130.041V130.03C207.378 126.302 209.534 123.806 212.866 123.806C216.198 123.806 218.243 126.214 218.243 129.799V130.635H209.776C209.82 132.922 211.073 134.253 213.042 134.253C214.57 134.253 215.483 133.494 215.769 132.878L215.813 132.79L218.111 132.779L218.089 132.878C217.694 134.451 216.044 136.21 212.987 136.21ZM212.877 125.763C211.249 125.763 210.018 126.874 209.809 128.93H215.879C215.692 126.797 214.493 125.763 212.877 125.763ZM231.22 136.21C228.526 136.21 227.129 134.594 227.129 131.768V124.037H229.515V131.207C229.515 133.186 230.241 134.165 231.99 134.165C233.903 134.165 234.926 132.966 234.926 131.042V124.037H237.301V135.979H234.926V134.176H234.739C234.167 135.463 232.957 136.21 231.22 136.21ZM240.743 139.96V124.037H243.13V125.917H243.306C243.999 124.609 245.307 123.828 246.979 123.828C249.992 123.828 251.927 126.236 251.927 129.997V130.019C251.927 133.802 250.014 136.177 246.979 136.177C245.34 136.177 243.944 135.375 243.306 134.088H243.13V139.96H240.743ZM246.308 134.143C248.298 134.143 249.497 132.581 249.497 130.019V129.997C249.497 127.424 248.298 125.873 246.308 125.873C244.317 125.873 243.086 127.446 243.086 129.997V130.019C243.086 132.57 244.317 134.143 246.308 134.143Z" fill="black"/>
</g>
</g>
</g>
</g>
<defs>
<filter id="filter0_b_5322_68363" x="39.478" y="83.4575" width="261.044" height="90.044" filterUnits="userSpaceOnUse" color-interpolation-filters="sRGB">
<feFlood flood-opacity="0" result="BackgroundImageFix"/>
<feGaussianBlur in="BackgroundImageFix" stdDeviation="11.261"/>
<feComposite in2="SourceAlpha" operator="in" result="effect1_backgroundBlur_5322_68363"/>
<feBlend mode="normal" in="SourceGraphic" in2="effect1_backgroundBlur_5322_68363" result="shape"/>
</filter>
<filter id="filter1_f_5322_68363" x="-29.9662" y="-8.47105" width="403.519" height="274.018" filterUnits="userSpaceOnUse" color-interpolation-filters="sRGB">
<feFlood flood-opacity="0" result="BackgroundImageFix"/>
<feBlend mode="normal" in="SourceGraphic" in2="BackgroundImageFix" result="shape"/>
<feGaussianBlur stdDeviation="50.6745" result="effect1_foregroundBlur_5322_68363"/>
</filter>
<filter id="filter2_d_5322_68363" x="83.9854" y="116.219" width="26.522" height="26.522" filterUnits="userSpaceOnUse" color-interpolation-filters="sRGB">
<feFlood flood-opacity="0" result="BackgroundImageFix"/>
<feColorMatrix in="SourceAlpha" type="matrix" values="0 0 0 0 0 0 0 0 0 0 0 0 0 0 0 0 0 0 127 0" result="hardAlpha"/>
<feOffset dy="1"/>
<feGaussianBlur stdDeviation="1"/>
<feComposite in2="hardAlpha" operator="out"/>
<feColorMatrix type="matrix" values="0 0 0 0 0 0 0 0 0 0 0 0 0 0 0 0 0 0 0.055 0"/>
<feBlend mode="normal" in2="BackgroundImageFix" result="effect1_dropShadow_5322_68363"/>
<feBlend mode="normal" in="SourceGraphic" in2="effect1_dropShadow_5322_68363" result="shape"/>
</filter>
<radialGradient id="paint0_radial_5322_68363" cx="0" cy="0" r="1" gradientUnits="userSpaceOnUse" gradientTransform="translate(170 107.5) rotate(90) scale(130.5 170)">
<stop offset="0.853953" stop-color="#D9D9D9"/>
<stop offset="1" stop-color="#737373" stop-opacity="0"/>
</radialGradient>
<linearGradient id="paint1_linear_5322_68363" x1="100.399" y1="132.984" x2="107.606" y2="118.57" gradientUnits="userSpaceOnUse">
<stop stop-color="#FF02F0"/>
<stop offset="1" stop-color="#FFC800"/>
</linearGradient>
<linearGradient id="paint2_linear_5322_68363" x1="90.9402" y1="138.84" x2="95.4446" y2="129.831" gradientUnits="userSpaceOnUse">
<stop stop-color="#8930FD"/>
<stop offset="1" stop-color="#49CCF9"/>
</linearGradient>
<clipPath id="clip0_5322_68363">
<rect width="340" height="237" fill="white" transform="translate(0 0.97998)"/>
</clipPath>
<clipPath id="clip1_5322_68363">
<rect x="62" y="105.979" width="216" height="45" rx="22.5" fill="white"/>
</clipPath>
</defs>
</svg>
