<svg width="340" height="238" viewBox="0 0 340 238" fill="none" xmlns="http://www.w3.org/2000/svg">
<g clip-path="url(#clip0_5322_68399)">
<mask id="mask0_5322_68399" style="mask-type:alpha" maskUnits="userSpaceOnUse" x="0" y="-23" width="340" height="261">
<rect y="-23" width="340" height="261" fill="url(#paint0_radial_5322_68399)"/>
</mask>
<g mask="url(#mask0_5322_68399)">
<g style="mix-blend-mode:plus-lighter">
<ellipse cx="170" cy="261" rx="211" ry="130" stroke="#373737"/>
<ellipse cx="170" cy="1" rx="211" ry="130" stroke="#373737"/>
<ellipse cx="107" cy="130" rx="107" ry="130" transform="matrix(1 0 0 -1 63 131)" stroke="#373737"/>
<ellipse cx="170" cy="215" rx="107" ry="84" stroke="url(#paint1_linear_5322_68399)"/>
</g>
<path opacity="0.5" d="M294.5 105.969C305.133 101.174 315.009 95.7801 324 89.8685" stroke="#FA12E3"/>
<path opacity="0.5" d="M80.5 169C74 177 69.5083 184.631 66.5 193.5" stroke="#FA12E3"/>
<g filter="url(#filter0_b_5322_68399)">
<g clip-path="url(#clip1_5322_68399)">
<rect x="123" y="81.98" width="95" height="95" rx="47.5" fill="url(#paint2_linear_5322_68399)" fill-opacity="0.9"/>
<g style="mix-blend-mode:plus-lighter" filter="url(#filter1_f_5322_68399)">
<ellipse cx="181.5" cy="106" rx="53.5" ry="31" fill="#FA12E3"/>
</g>
<g clip-path="url(#clip2_5322_68399)">
<path fill-rule="evenodd" clip-rule="evenodd" d="M180.361 105.986C179.826 104.137 177.002 104.137 176.466 105.986L175.707 108.606C174.071 114.251 171.836 118.66 165.762 120.179L162.943 120.885C160.952 121.383 160.952 124.007 162.943 124.505L165.762 125.21C171.836 126.73 174.071 131.139 175.707 136.783L176.466 139.403C177.002 141.252 179.826 141.252 180.361 139.403L181.121 136.783C182.756 131.139 184.992 126.73 191.066 125.21L193.886 124.505C195.876 124.007 195.876 121.383 193.886 120.885C191.895 120.387 191.066 120.179 191.066 120.179C184.992 118.66 182.756 114.251 181.121 108.606L180.361 105.986Z" fill="url(#paint3_linear_5322_68399)"/>
<path fill-rule="evenodd" clip-rule="evenodd" d="M156.966 132.609C156.645 131.453 154.951 131.453 154.629 132.609L154.174 134.246C153.192 137.774 151.851 140.53 148.207 141.48L146.515 141.921C145.321 142.232 145.321 143.872 146.515 144.183L148.207 144.624C151.851 145.574 153.192 148.329 154.174 151.857L154.629 153.494C154.951 154.65 156.645 154.65 156.966 153.494L157.422 151.857C158.403 148.329 159.745 145.574 163.389 144.624L165.081 144.183C166.275 143.872 166.275 142.232 165.081 141.921C163.886 141.609 163.389 141.48 163.389 141.48C159.745 140.53 158.403 137.774 157.422 134.246L156.966 132.609Z" fill="url(#paint4_linear_5322_68399)"/>
</g>
</g>
</g>
<rect x="246" y="30.9995" width="40" height="40" rx="6" fill="#201B24"/>
<rect x="246" y="30.9995" width="40" height="40" rx="6" stroke="#4B3B49"/>
<path d="M266 40.4995C260.199 40.4995 255.5 45.1983 255.5 50.9995C255.5 55.6458 258.506 59.5701 262.679 60.9614C263.204 61.0533 263.401 60.7383 263.401 60.4626C263.401 60.2133 263.388 59.3864 263.388 58.507C260.75 58.9926 260.067 57.8639 259.857 57.2733C259.739 56.9714 259.227 56.0395 258.781 55.7901C258.414 55.5933 257.889 55.1076 258.768 55.0945C259.595 55.0814 260.186 55.8558 260.382 56.1708C261.327 57.7589 262.837 57.3126 263.441 57.037C263.533 56.3545 263.808 55.8951 264.11 55.6326C261.774 55.3701 259.332 54.4645 259.332 50.4483C259.332 49.3064 259.739 48.3614 260.409 47.6264C260.304 47.3639 259.936 46.2876 260.514 44.8439C260.514 44.8439 261.393 44.5683 263.401 45.9201C264.241 45.6839 265.134 45.5658 266.026 45.5658C266.919 45.5658 267.811 45.6839 268.651 45.9201C270.659 44.5551 271.539 44.8439 271.539 44.8439C272.116 46.2876 271.749 47.3639 271.644 47.6264C272.313 48.3614 272.72 49.2933 272.72 50.4483C272.72 54.4776 270.266 55.3701 267.929 55.6326C268.31 55.9608 268.638 56.5908 268.638 57.5751C268.638 58.9795 268.625 60.1083 268.625 60.4626C268.625 60.7383 268.822 61.0664 269.347 60.9614C271.431 60.2577 273.243 58.9181 274.526 57.131C275.809 55.344 276.499 53.1995 276.5 50.9995C276.5 45.1983 271.801 40.4995 266 40.4995Z" fill="white"/>
<rect x="16" y="140" width="40" height="40" rx="6" fill="#201B24"/>
<rect x="16" y="140" width="40" height="40" rx="6" stroke="#4B3B49"/>
<path d="M27.512 166.426L28.394 167.961C28.5773 168.284 28.8408 168.538 29.1501 168.723L32.3001 163.23H26C26 163.588 26.0916 163.946 26.2749 164.269L27.512 166.426Z" fill="#0066DA"/>
<path d="M36 156.769L32.8499 151.276C32.5407 151.461 32.2772 151.715 32.0939 152.038L26.2749 162.192C26.095 162.508 26.0002 162.866 26 163.23H32.3001L36 156.769Z" fill="#00AC47"/>
<path d="M42.8499 168.723C43.1592 168.538 43.4227 168.284 43.606 167.961L43.9725 167.326L45.7251 164.269C45.9084 163.946 46 163.588 46 163.23H39.6994L41.0401 165.884L42.8499 168.723Z" fill="#EA4335"/>
<path d="M36 156.769L39.1501 151.276C38.8408 151.092 38.4857 151 38.1191 151H33.8809C33.5143 151 33.1592 151.103 32.8499 151.276L36 156.769Z" fill="#00832D"/>
<path d="M39.6994 163.23H32.3001L29.1501 168.723C29.4593 168.907 29.8144 169 30.181 169H41.819C42.1856 169 42.5407 168.896 42.8499 168.723L39.6994 163.23Z" fill="#2684FC"/>
<path d="M42.8156 157.115L39.9061 152.038C39.7228 151.715 39.4593 151.461 39.1501 151.276L36 156.769L39.6994 163.23H45.9885C45.9885 162.873 45.8969 162.515 45.7136 162.192L42.8156 157.115Z" fill="#FFBA00"/>
<rect x="24.5" y="17.48" width="94" height="39" rx="7.5" fill="#201B24"/>
<rect x="24.5" y="17.48" width="94" height="39" rx="7.5" stroke="#4B3B49"/>
<path fill-rule="evenodd" clip-rule="evenodd" d="M40.244 36.3917C40.1176 36.5406 40.0676 36.6314 40.0435 36.7055C39.9855 36.8839 39.9855 37.0761 40.0435 37.2544C40.0676 37.3286 40.1176 37.4194 40.244 37.5683C40.3738 37.7212 40.5564 37.9043 40.8254 38.1732L42.8067 40.1546C43.0757 40.4236 43.2588 40.6062 43.4117 40.736C43.5606 40.8624 43.6514 40.9124 43.7255 40.9365C43.9039 40.9945 44.0961 40.9945 44.2745 40.9365C44.3486 40.9124 44.4394 40.8624 44.5883 40.736C44.7412 40.6062 44.9243 40.4236 45.1932 40.1546L47.1746 38.1732C47.4436 37.9043 47.6262 37.7212 47.756 37.5683C47.8824 37.4194 47.9324 37.3286 47.9565 37.2544C48.0145 37.0761 48.0145 36.8839 47.9565 36.7055C47.9324 36.6314 47.8824 36.5406 47.756 36.3917C47.6262 36.2388 47.4436 36.0557 47.1746 35.7867L45.1933 33.8053C44.9243 33.5364 44.7412 33.3538 44.5883 33.224C44.4394 33.0976 44.3486 33.0475 44.2745 33.0235C44.0961 32.9655 43.9039 32.9655 43.7255 33.0235C43.6514 33.0475 43.5606 33.0976 43.4117 33.224C43.2588 33.3538 43.0757 33.5364 42.8068 33.8053L40.8254 35.7867C40.5564 36.0557 40.3738 36.2388 40.244 36.3917Z" fill="#FF802B"/>
<path fill-rule="evenodd" clip-rule="evenodd" d="M38.2757 34.2671L41.2871 31.2557C41.6664 30.8765 41.9793 30.5635 42.2551 30.3294C42.5415 30.0862 42.8314 29.8892 43.1765 29.7771C43.7117 29.6032 44.2883 29.6032 44.8235 29.7771C45.1686 29.8892 45.4585 30.0862 45.7449 30.3294C46.0207 30.5635 46.3337 30.8765 46.7129 31.2557L49.7243 34.2671C50.1035 34.6463 50.4165 34.9593 50.6506 35.2351C50.8938 35.5215 51.0908 35.8114 51.2029 36.1565C51.3768 36.6917 51.3768 37.2683 51.2029 37.8035C51.0908 38.1486 50.8938 38.4385 50.6506 38.7249C50.4165 39.0007 50.1035 39.3137 49.7243 39.6929L46.7129 42.7043C46.3337 43.0835 46.0207 43.3965 45.7449 43.6306C45.4585 43.8738 45.1686 44.0708 44.8235 44.1829C44.2883 44.3568 43.7117 44.3568 43.1765 44.1829C42.8314 44.0708 42.5415 43.8738 42.2551 43.6306C41.9793 43.3965 41.6663 43.0835 41.2871 42.7043L38.2757 39.6929C37.8965 39.3137 37.5835 39.0007 37.3494 38.7249C37.1062 38.4385 36.9092 38.1486 36.7971 37.8035C36.6232 37.2683 36.6232 36.6917 36.7971 36.1565C36.9092 35.8114 37.1062 35.5215 37.3494 35.2351C37.5835 34.9593 37.8965 34.6463 38.2757 34.2671ZM38.3652 36.0974C38.1755 36.3208 38.1005 36.457 38.0643 36.5683C37.9774 36.8359 37.9774 37.1241 38.0643 37.3918C38.1005 37.503 38.1755 37.6392 38.3652 37.8626C38.5599 38.0919 38.8338 38.3666 39.2373 38.7701L42.2099 41.7427C42.6134 42.1462 42.8881 42.4201 43.1174 42.6148C43.3408 42.8045 43.477 42.8795 43.5883 42.9157C43.8559 43.0026 44.1441 43.0026 44.4118 42.9157C44.523 42.8795 44.6592 42.8045 44.8826 42.6148C45.1119 42.4201 45.3866 42.1462 45.7901 41.7427L48.7627 38.7701C49.1662 38.3666 49.4401 38.0919 49.6349 37.8626C49.8245 37.6392 49.8995 37.503 49.9357 37.3917C50.0226 37.1241 50.0226 36.8359 49.9357 36.5682C49.8995 36.457 49.8245 36.3208 49.6349 36.0974C49.4401 35.8681 49.1662 35.5934 48.7627 35.1899L45.7901 32.2173C45.3866 31.8138 45.1119 31.5399 44.8826 31.3452C44.6592 31.1555 44.523 31.0805 44.4118 31.0443C44.1441 30.9574 43.8559 30.9574 43.5883 31.0443C43.477 31.0805 43.3408 31.1555 43.1174 31.3452C42.8881 31.5399 42.6134 31.8138 42.2099 32.2173L39.2373 35.1899C38.8338 35.5934 38.5599 35.8681 38.3652 36.0974Z" fill="#FF802B"/>
<path d="M59.2373 41.98V32.1157H60.7686V40.6606H65.3896V41.98H59.2373ZM69.0473 42.103C67.6322 42.103 66.5863 41.2417 66.5863 39.895V39.8813C66.5863 38.5552 67.5844 37.7827 69.3549 37.6733L71.3646 37.5571V36.9009C71.3646 36.0874 70.852 35.6362 69.8471 35.6362C69.0268 35.6362 68.4867 35.937 68.309 36.4634L68.3021 36.4907H66.8734L66.8803 36.4429C67.058 35.2261 68.227 34.4126 69.9154 34.4126C71.7816 34.4126 72.8344 35.3423 72.8344 36.9009V41.98H71.3646V40.9272H71.2484C70.8109 41.6792 70.0316 42.103 69.0473 42.103ZM68.0629 39.8335C68.0629 40.5171 68.6439 40.9204 69.4437 40.9204C70.5512 40.9204 71.3646 40.1958 71.3646 39.2388V38.603L69.5531 38.7192C68.5277 38.7808 68.0629 39.1499 68.0629 39.8198V39.8335ZM77.2508 42.1235C75.576 42.1235 74.7078 41.1187 74.7078 39.3618V34.5562H76.1912V39.0132C76.1912 40.2437 76.6424 40.8521 77.7293 40.8521C78.9187 40.8521 79.5545 40.1069 79.5545 38.9106V34.5562H81.0311V41.98H79.5545V40.8589H79.4383C79.0828 41.6587 78.3309 42.1235 77.2508 42.1235ZM83.0207 41.98V34.5562H84.5041V35.6841H84.6135C84.9758 34.8911 85.6867 34.4126 86.7668 34.4126C88.4279 34.4126 89.3439 35.4038 89.3439 37.1743V41.98H87.8674V37.5229C87.8674 36.2925 87.3547 35.6841 86.2678 35.6841C85.1809 35.6841 84.5041 36.4292 84.5041 37.6255V41.98H83.0207ZM94.3893 42.1235C92.2223 42.1235 90.8961 40.647 90.8961 38.2476V38.2339C90.8961 35.8823 92.2154 34.4126 94.3824 34.4126C96.2486 34.4126 97.3629 35.4653 97.568 36.9077V36.9419L96.1461 36.9487L96.1393 36.9282C95.9752 36.1968 95.3736 35.6499 94.3893 35.6499C93.152 35.6499 92.4068 36.6343 92.4068 38.2339V38.2476C92.4068 39.8882 93.1656 40.8862 94.3893 40.8862C95.3189 40.8862 95.8932 40.4624 96.1324 39.6626L96.1461 39.6284H97.568L97.5543 39.6899C97.2877 41.1323 96.2281 42.1235 94.3893 42.1235ZM99.168 41.98V31.644H100.651V35.6841H100.761C101.123 34.8911 101.834 34.4126 102.914 34.4126C104.575 34.4126 105.491 35.4038 105.491 37.1743V41.98H104.015V37.5229C104.015 36.2925 103.502 35.6841 102.415 35.6841C101.328 35.6841 100.651 36.4292 100.651 37.6255V41.98H99.168Z" fill="#EEEEEE"/>
<rect x="230.5" y="180.5" width="116" height="39" rx="7.5" fill="#201B24"/>
<rect x="230.5" y="180.5" width="116" height="39" rx="7.5" stroke="#4B3B49"/>
<path fill-rule="evenodd" clip-rule="evenodd" d="M250 193.333C246.318 193.333 243.333 196.318 243.333 200C243.333 203.682 246.318 206.667 250 206.667C253.682 206.667 256.667 203.682 256.667 200C256.667 196.318 253.682 193.333 250 193.333ZM253.471 198.805C253.732 198.544 253.732 198.122 253.471 197.862C253.211 197.602 252.789 197.602 252.529 197.862L249 201.391L247.471 199.862C247.211 199.602 246.789 199.602 246.529 199.862C246.268 200.122 246.268 200.544 246.529 200.805L248.529 202.805C248.789 203.065 249.211 203.065 249.471 202.805L253.471 198.805Z" fill="#30A46C"/>
<path d="M269.284 205.239C266.543 205.239 264.834 203.257 264.834 200.078V200.064C264.834 196.879 266.536 194.896 269.277 194.896C271.451 194.896 273.119 196.271 273.379 198.232L273.372 198.267H271.854V198.246C271.567 197.036 270.576 196.25 269.277 196.25C267.507 196.25 266.399 197.72 266.399 200.064V200.078C266.399 202.416 267.507 203.886 269.284 203.886C270.59 203.886 271.567 203.188 271.848 202.074L271.861 202.047H273.379V202.088C273.092 203.981 271.485 205.239 269.284 205.239ZM277.112 205.123C275.697 205.123 274.651 204.262 274.651 202.915V202.901C274.651 201.575 275.649 200.803 277.419 200.693L279.429 200.577V199.921C279.429 199.107 278.916 198.656 277.912 198.656C277.091 198.656 276.551 198.957 276.373 199.483L276.367 199.511H274.938L274.945 199.463C275.122 198.246 276.291 197.433 277.98 197.433C279.846 197.433 280.899 198.362 280.899 199.921V205H279.429V203.947H279.313C278.875 204.699 278.096 205.123 277.112 205.123ZM276.127 202.854C276.127 203.537 276.708 203.94 277.508 203.94C278.616 203.94 279.429 203.216 279.429 202.259V201.623L277.618 201.739C276.592 201.801 276.127 202.17 276.127 202.84V202.854ZM282.841 205V197.576H284.324V198.718H284.433C284.762 197.904 285.486 197.433 286.457 197.433C287.469 197.433 288.186 197.959 288.514 198.759H288.631C289.007 197.959 289.861 197.433 290.893 197.433C292.39 197.433 293.265 198.335 293.265 199.88V205H291.789V200.235C291.789 199.21 291.324 198.704 290.353 198.704C289.41 198.704 288.788 199.408 288.788 200.304V205H287.311V200.085C287.311 199.237 286.758 198.704 285.883 198.704C284.987 198.704 284.324 199.47 284.324 200.44V205H282.841ZM295.187 207.475V197.576H296.67V198.745H296.779C297.21 197.932 298.024 197.446 299.063 197.446C300.936 197.446 302.139 198.943 302.139 201.281V201.295C302.139 203.646 300.949 205.123 299.063 205.123C298.044 205.123 297.176 204.624 296.779 203.824H296.67V207.475H295.187ZM298.646 203.858C299.883 203.858 300.628 202.888 300.628 201.295V201.281C300.628 199.682 299.883 198.718 298.646 198.718C297.408 198.718 296.643 199.695 296.643 201.281V201.295C296.643 202.881 297.408 203.858 298.646 203.858ZM305.81 205.123C304.395 205.123 303.349 204.262 303.349 202.915V202.901C303.349 201.575 304.347 200.803 306.118 200.693L308.128 200.577V199.921C308.128 199.107 307.615 198.656 306.61 198.656C305.79 198.656 305.25 198.957 305.072 199.483L305.065 199.511H303.636L303.643 199.463C303.821 198.246 304.99 197.433 306.678 197.433C308.545 197.433 309.597 198.362 309.597 199.921V205H308.128V203.947H308.011C307.574 204.699 306.795 205.123 305.81 205.123ZM304.826 202.854C304.826 203.537 305.407 203.94 306.207 203.94C307.314 203.94 308.128 203.216 308.128 202.259V201.623L306.316 201.739C305.291 201.801 304.826 202.17 304.826 202.84V202.854ZM312.312 196.25C311.799 196.25 311.382 195.833 311.382 195.327C311.382 194.814 311.799 194.397 312.312 194.397C312.817 194.397 313.241 194.814 313.241 195.327C313.241 195.833 312.817 196.25 312.312 196.25ZM311.566 205V197.576H313.043V205H311.566ZM318.191 207.618C316.304 207.618 315.142 206.791 314.964 205.554L314.978 205.54H316.475L316.482 205.554C316.605 206.066 317.206 206.429 318.211 206.429C319.435 206.429 320.16 205.854 320.16 204.843V203.38H320.05C319.599 204.187 318.779 204.638 317.76 204.638C315.853 204.638 314.677 203.168 314.677 201.076V201.062C314.677 198.943 315.86 197.446 317.787 197.446C318.827 197.446 319.633 197.959 320.064 198.793H320.153V197.576H321.629V204.85C321.629 206.538 320.296 207.618 318.191 207.618ZM318.17 203.414C319.428 203.414 320.187 202.457 320.187 201.069V201.056C320.187 199.675 319.421 198.704 318.17 198.704C316.906 198.704 316.195 199.675 316.195 201.056V201.069C316.195 202.45 316.906 203.414 318.17 203.414ZM323.612 205V197.576H325.096V198.704H325.205C325.567 197.911 326.278 197.433 327.358 197.433C329.019 197.433 329.935 198.424 329.935 200.194V205H328.459V200.543C328.459 199.312 327.946 198.704 326.859 198.704C325.772 198.704 325.096 199.449 325.096 200.646V205H323.612Z" fill="#EEEEEE"/>
</g>
</g>
<defs>
<filter id="filter0_b_5322_68399" x="71.7302" y="30.7101" width="197.54" height="197.54" filterUnits="userSpaceOnUse" color-interpolation-filters="sRGB">
<feFlood flood-opacity="0" result="BackgroundImageFix"/>
<feGaussianBlur in="BackgroundImageFix" stdDeviation="25.6349"/>
<feComposite in2="SourceAlpha" operator="in" result="effect1_backgroundBlur_5322_68399"/>
<feBlend mode="normal" in="SourceGraphic" in2="effect1_backgroundBlur_5322_68399" result="shape"/>
</filter>
<filter id="filter1_f_5322_68399" x="74" y="20.9995" width="215" height="170" filterUnits="userSpaceOnUse" color-interpolation-filters="sRGB">
<feFlood flood-opacity="0" result="BackgroundImageFix"/>
<feBlend mode="normal" in="SourceGraphic" in2="BackgroundImageFix" result="shape"/>
<feGaussianBlur stdDeviation="27" result="effect1_foregroundBlur_5322_68399"/>
</filter>
<radialGradient id="paint0_radial_5322_68399" cx="0" cy="0" r="1" gradientUnits="userSpaceOnUse" gradientTransform="translate(170 107.5) rotate(90) scale(159.57 191.59)">
<stop offset="0.755402" stop-color="#D9D9D9"/>
<stop offset="1" stop-color="#737373" stop-opacity="0"/>
</radialGradient>
<linearGradient id="paint1_linear_5322_68399" x1="170" y1="131" x2="170" y2="225.985" gradientUnits="userSpaceOnUse">
<stop offset="0.9999" stop-color="#373737"/>
<stop offset="1" stop-color="#373737" stop-opacity="0"/>
</linearGradient>
<linearGradient id="paint2_linear_5322_68399" x1="170.5" y1="81.98" x2="170.5" y2="176.98" gradientUnits="userSpaceOnUse">
<stop stop-color="white"/>
<stop offset="1" stop-color="white" stop-opacity="0.9"/>
</linearGradient>
<linearGradient id="paint3_linear_5322_68399" x1="178.097" y1="140.337" x2="195.469" y2="105.595" gradientUnits="userSpaceOnUse">
<stop stop-color="#FF02F0"/>
<stop offset="1" stop-color="#FFC800"/>
</linearGradient>
<linearGradient id="paint4_linear_5322_68399" x1="155.3" y1="154.452" x2="166.158" y2="132.737" gradientUnits="userSpaceOnUse">
<stop stop-color="#8930FD"/>
<stop offset="1" stop-color="#49CCF9"/>
</linearGradient>
<clipPath id="clip0_5322_68399">
<rect width="340" height="237" fill="white" transform="translate(0 0.97998)"/>
</clipPath>
<clipPath id="clip1_5322_68399">
<rect x="123" y="81.98" width="95" height="95" rx="47.5" fill="white"/>
</clipPath>
<clipPath id="clip2_5322_68399">
<rect width="54.2857" height="54.2857" fill="white" transform="translate(143.357 102.337)"/>
</clipPath>
</defs>
</svg>
