<svg width="340" height="238" viewBox="0 0 340 238" fill="none" xmlns="http://www.w3.org/2000/svg">
<g clip-path="url(#clip0_5322_68438)">
<mask id="mask0_5322_68438" style="mask-type:alpha" maskUnits="userSpaceOnUse" x="0" y="-23" width="340" height="261">
<rect y="-23" width="340" height="261" fill="url(#paint0_radial_5322_68438)"/>
</mask>
<g mask="url(#mask0_5322_68438)">
<g style="mix-blend-mode:plus-lighter">
<rect x="62" y="13" width="215" height="63" rx="12" stroke="#373737"/>
<rect x="62" y="-62" width="215" height="63" rx="12" stroke="#373737"/>
<rect x="289" y="-62" width="215" height="138" rx="12" stroke="#373737"/>
<rect x="-165" y="13" width="215" height="138" rx="12" stroke="#373737"/>
<rect x="289" y="163" width="215" height="138" rx="12" stroke="#373737"/>
<rect x="62" y="163" width="215" height="138" rx="12" stroke="#373737"/>
<rect x="-165" y="163" width="215" height="63" rx="12" stroke="#373737"/>
<rect x="-165" y="238" width="215" height="63" rx="12" stroke="#373737"/>
<rect x="-165" y="-62" width="215" height="63" rx="12" stroke="#373737"/>
<rect x="289" y="88" width="215" height="63" rx="12" stroke="#373737"/>
</g>
<g filter="url(#filter0_b_5322_68438)">
<g clip-path="url(#clip1_5322_68438)">
<rect x="62" y="88" width="215" height="63" rx="16" fill="white" fill-opacity="0.9"/>
<g style="mix-blend-mode:plus-lighter" filter="url(#filter1_f_5322_68438)">
<ellipse cx="171.793" cy="110.558" rx="100.411" ry="35.6598" fill="#FA12E3" fill-opacity="0.45"/>
</g>
<g filter="url(#filter2_d_5322_68438)">
<path fill-rule="evenodd" clip-rule="evenodd" d="M105.339 109.753C105.116 108.986 103.945 108.986 103.723 109.753L103.408 110.84C102.729 113.181 101.802 115.011 99.2816 115.641L98.1121 115.934C97.2862 116.14 97.2862 117.229 98.1121 117.436L99.2816 117.728C101.802 118.359 102.729 120.188 103.408 122.53L103.723 123.617C103.945 124.384 105.116 124.384 105.339 123.617L105.654 122.53C106.332 120.188 107.26 118.359 109.78 117.728L110.95 117.436C111.775 117.229 111.775 116.14 110.95 115.934C110.124 115.727 109.78 115.641 109.78 115.641C107.26 115.011 106.332 113.181 105.654 110.84L105.339 109.753Z" fill="url(#paint1_linear_5322_68438)"/>
<path fill-rule="evenodd" clip-rule="evenodd" d="M95.6314 120.798C95.498 120.319 94.7951 120.319 94.6617 120.798L94.4729 121.477C94.0656 122.941 93.5091 124.084 91.9971 124.478L91.2954 124.661C90.7999 124.79 90.7999 125.471 91.2954 125.6L91.9971 125.783C93.5091 126.177 94.0656 127.32 94.4729 128.784L94.6617 129.463C94.7951 129.942 95.498 129.942 95.6314 129.463L95.8204 128.784C96.2274 127.32 96.7841 126.177 98.2962 125.783L98.9979 125.6C99.4934 125.471 99.4934 124.79 98.9979 124.661C98.5024 124.532 98.2962 124.478 98.2962 124.478C96.7841 124.084 96.2274 122.941 95.8204 121.477L95.6314 120.798Z" fill="url(#paint2_linear_5322_68438)"/>
</g>
<path d="M128.515 127.385C124.106 127.385 121.356 124.196 121.356 119.082V119.06C121.356 113.935 124.095 110.746 128.504 110.746C132.001 110.746 134.685 112.957 135.103 116.113L135.092 116.168H132.65V116.135C132.188 114.188 130.594 112.924 128.504 112.924C125.656 112.924 123.875 115.288 123.875 119.06V119.082C123.875 122.843 125.656 125.207 128.515 125.207C130.616 125.207 132.188 124.086 132.639 122.293L132.661 122.249H135.103V122.315C134.641 125.361 132.056 127.385 128.515 127.385ZM138.072 127V115.057H140.458V116.861H140.634C141.063 115.596 142.174 114.848 143.768 114.848C144.153 114.848 144.571 114.903 144.813 114.958V117.158C144.384 117.07 143.977 117.015 143.526 117.015C141.701 117.015 140.458 118.136 140.458 119.863V127H138.072ZM151.796 127.231C148.299 127.231 146.188 124.845 146.188 121.062V121.051C146.188 117.323 148.343 114.826 151.675 114.826C155.007 114.826 157.053 117.235 157.053 120.82V121.655H148.585C148.629 123.943 149.883 125.273 151.851 125.273C153.38 125.273 154.293 124.515 154.578 123.899L154.622 123.811L156.921 123.8L156.899 123.899C156.503 125.471 154.853 127.231 151.796 127.231ZM151.686 116.784C150.059 116.784 148.827 117.894 148.618 119.951H154.688C154.501 117.817 153.303 116.784 151.686 116.784ZM163.167 127.198C160.891 127.198 159.208 125.812 159.208 123.646V123.624C159.208 121.49 160.814 120.248 163.662 120.072L166.895 119.885V118.829C166.895 117.521 166.07 116.795 164.454 116.795C163.134 116.795 162.265 117.279 161.979 118.125L161.968 118.169H159.67L159.681 118.092C159.967 116.135 161.847 114.826 164.564 114.826C167.566 114.826 169.26 116.322 169.26 118.829V127H166.895V125.306H166.708C166.004 126.516 164.751 127.198 163.167 127.198ZM161.584 123.547C161.584 124.647 162.518 125.295 163.805 125.295C165.586 125.295 166.895 124.13 166.895 122.59V121.567L163.981 121.754C162.331 121.853 161.584 122.447 161.584 123.525V123.547ZM177.133 127.077C174.505 127.077 173.427 126.153 173.427 123.855V116.938H171.558V115.057H173.427V112.044H175.858V115.057H178.42V116.938H175.858V123.283C175.858 124.57 176.342 125.098 177.518 125.098C177.881 125.098 178.09 125.087 178.42 125.054V126.956C178.035 127.022 177.595 127.077 177.133 127.077ZM186.085 127.231C182.588 127.231 180.477 124.845 180.477 121.062V121.051C180.477 117.323 182.632 114.826 185.964 114.826C189.296 114.826 191.342 117.235 191.342 120.82V121.655H182.874C182.918 123.943 184.172 125.273 186.14 125.273C187.669 125.273 188.581 124.515 188.867 123.899L188.911 123.811L191.21 123.8L191.188 123.899C190.792 125.471 189.142 127.231 186.085 127.231ZM185.975 116.784C184.347 116.784 183.116 117.894 182.907 119.951H188.977C188.79 117.817 187.592 116.784 185.975 116.784ZM204.637 127V113.254H199.644V111.131H212.082V113.254H207.1V127H204.637ZM215.865 127.198C213.589 127.198 211.906 125.812 211.906 123.646V123.624C211.906 121.49 213.512 120.248 216.36 120.072L219.593 119.885V118.829C219.593 117.521 218.768 116.795 217.152 116.795C215.832 116.795 214.963 117.279 214.677 118.125L214.666 118.169H212.368L212.379 118.092C212.665 116.135 214.545 114.826 217.262 114.826C220.264 114.826 221.957 116.322 221.957 118.829V127H219.593V125.306H219.406C218.702 126.516 217.449 127.198 215.865 127.198ZM214.282 123.547C214.282 124.647 215.216 125.295 216.503 125.295C218.284 125.295 219.593 124.13 219.593 122.59V121.567L216.679 121.754C215.029 121.853 214.282 122.447 214.282 123.525V123.547ZM229.666 127.231C226.785 127.231 224.96 125.878 224.729 123.877V123.866H227.115L227.126 123.877C227.423 124.779 228.292 125.383 229.71 125.383C231.184 125.383 232.207 124.713 232.207 123.734V123.712C232.207 122.964 231.646 122.458 230.26 122.139L228.358 121.699C226.103 121.183 225.059 120.16 225.059 118.411V118.4C225.059 116.322 226.994 114.826 229.699 114.826C232.427 114.826 234.175 116.19 234.384 118.136V118.147H232.108V118.125C231.877 117.29 231.03 116.663 229.688 116.663C228.38 116.663 227.434 117.312 227.434 118.268V118.29C227.434 119.038 227.984 119.5 229.326 119.819L231.217 120.248C233.515 120.787 234.615 121.765 234.615 123.492V123.514C234.615 125.724 232.504 127.231 229.666 127.231ZM237.573 127V110.372H239.96V120.094H240.136L244.875 115.057H247.669L242.687 120.094L247.999 127H245.095L240.982 121.633L239.96 122.656V127H237.573Z" fill="black"/>
</g>
</g>
<path opacity="0.5" d="M136 13L105 13" stroke="#FA12E3"/>
<path opacity="0.5" d="M289 48L289 66" stroke="#FA12E3"/>
<path opacity="0.5" d="M50 198L50 216" stroke="#FA12E3"/>
</g>
</g>
<defs>
<filter id="filter0_b_5322_68438" x="39.478" y="65.478" width="260.044" height="108.044" filterUnits="userSpaceOnUse" color-interpolation-filters="sRGB">
<feFlood flood-opacity="0" result="BackgroundImageFix"/>
<feGaussianBlur in="BackgroundImageFix" stdDeviation="11.261"/>
<feComposite in2="SourceAlpha" operator="in" result="effect1_backgroundBlur_5322_68438"/>
<feBlend mode="normal" in="SourceGraphic" in2="effect1_backgroundBlur_5322_68438" result="shape"/>
</filter>
<filter id="filter1_f_5322_68438" x="-29.9662" y="-26.4505" width="403.519" height="274.018" filterUnits="userSpaceOnUse" color-interpolation-filters="sRGB">
<feFlood flood-opacity="0" result="BackgroundImageFix"/>
<feBlend mode="normal" in="SourceGraphic" in2="BackgroundImageFix" result="shape"/>
<feGaussianBlur stdDeviation="50.6745" result="effect1_foregroundBlur_5322_68438"/>
</filter>
<filter id="filter2_d_5322_68438" x="87.9854" y="107.239" width="26.522" height="26.522" filterUnits="userSpaceOnUse" color-interpolation-filters="sRGB">
<feFlood flood-opacity="0" result="BackgroundImageFix"/>
<feColorMatrix in="SourceAlpha" type="matrix" values="0 0 0 0 0 0 0 0 0 0 0 0 0 0 0 0 0 0 127 0" result="hardAlpha"/>
<feOffset dy="1"/>
<feGaussianBlur stdDeviation="1"/>
<feComposite in2="hardAlpha" operator="out"/>
<feColorMatrix type="matrix" values="0 0 0 0 0 0 0 0 0 0 0 0 0 0 0 0 0 0 0.055 0"/>
<feBlend mode="normal" in2="BackgroundImageFix" result="effect1_dropShadow_5322_68438"/>
<feBlend mode="normal" in="SourceGraphic" in2="effect1_dropShadow_5322_68438" result="shape"/>
</filter>
<radialGradient id="paint0_radial_5322_68438" cx="0" cy="0" r="1" gradientUnits="userSpaceOnUse" gradientTransform="translate(170 107.5) rotate(90) scale(147.372 184.417)">
<stop offset="0.853953" stop-color="#D9D9D9"/>
<stop offset="1" stop-color="#737373" stop-opacity="0"/>
</radialGradient>
<linearGradient id="paint1_linear_5322_68438" x1="104.399" y1="124.004" x2="111.606" y2="109.59" gradientUnits="userSpaceOnUse">
<stop stop-color="#FF02F0"/>
<stop offset="1" stop-color="#FFC800"/>
</linearGradient>
<linearGradient id="paint2_linear_5322_68438" x1="94.9402" y1="129.86" x2="99.4446" y2="120.851" gradientUnits="userSpaceOnUse">
<stop stop-color="#8930FD"/>
<stop offset="1" stop-color="#49CCF9"/>
</linearGradient>
<clipPath id="clip0_5322_68438">
<rect width="340" height="237" fill="white" transform="translate(0 0.97998)"/>
</clipPath>
<clipPath id="clip1_5322_68438">
<rect x="62" y="88" width="215" height="63" rx="16" fill="white"/>
</clipPath>
</defs>
</svg>
