<svg width="245" height="151" viewBox="0 0 245 151" fill="none" xmlns="http://www.w3.org/2000/svg">
<mask id="mask0_8300_78566" style="mask-type:alpha" maskUnits="userSpaceOnUse" x="0" y="0" width="245" height="157">
<rect y="0.290039" width="245" height="156.628" fill="url(#paint0_radial_8300_78566)"/>
</mask>
<g mask="url(#mask0_8300_78566)">
<g clip-path="url(#clip0_8300_78566)">
<rect x="18" y="18.29" width="237" height="146" rx="8" fill="#1D1E20" fill-opacity="0.4"/>
<rect x="18.5267" y="18.8168" width="235.947" height="144.947" rx="7.47327" stroke="#E2E8FF" stroke-opacity="0.1" stroke-width="1.05346"/>
<path d="M46.282 54.4453L45.092 51.3513H40.468L39.278 54.4453H37.17L42.168 41.8823H43.443L48.39 54.4453H46.282ZM42.797 44.9933L41.097 49.5493H44.497L42.797 44.9933ZM53.9299 54.6493C51.0909 54.6493 49.0849 52.6433 49.0849 49.8723C49.0849 47.0673 51.1079 45.0613 53.9979 45.0613C55.8169 45.0613 57.4829 45.9793 58.2139 47.5093L56.6669 48.3763C56.1059 47.4243 55.1369 46.7783 54.0149 46.7783C52.2639 46.7783 50.9719 48.1213 50.9719 49.8723C50.9719 51.5893 52.2299 52.9323 53.9469 52.9323C55.0349 52.9323 56.1399 52.2693 56.6159 51.3683L58.1629 52.2693C57.4149 53.6973 55.7659 54.6493 53.9299 54.6493ZM65.3642 52.4393L66.0102 53.9013C65.3302 54.4113 64.3782 54.6663 63.4772 54.6663C61.4542 54.6663 60.4682 53.3913 60.4682 51.1643V46.8803H58.8872V45.2823H60.4852V42.0353H62.3382V45.2823H65.5002V46.8803H62.3382V51.1983C62.3382 52.3033 62.7292 52.9493 63.7492 52.9493C64.3442 52.9493 64.8712 52.7283 65.3642 52.4393ZM68.2623 44.0753C67.5313 44.0753 66.9703 43.5313 66.9703 42.8003C66.9703 42.0863 67.5313 41.5593 68.2623 41.5593C68.9593 41.5593 69.5033 42.0863 69.5033 42.8003C69.5033 43.5313 68.9593 44.0753 68.2623 44.0753ZM69.1633 54.4453H67.2933V45.2823H69.1633V54.4453ZM77.8831 45.2823H79.9401L75.9281 54.4283H74.5681L70.5561 45.2823H72.6301L75.2651 51.8273L77.8831 45.2823ZM82.3239 44.0753C81.5929 44.0753 81.0319 43.5313 81.0319 42.8003C81.0319 42.0863 81.5929 41.5593 82.3239 41.5593C83.0209 41.5593 83.5649 42.0863 83.5649 42.8003C83.5649 43.5313 83.0209 44.0753 82.3239 44.0753ZM83.2249 54.4453H81.3549V45.2823H83.2249V54.4453ZM91.1797 52.4393L91.8257 53.9013C91.1457 54.4113 90.1937 54.6663 89.2927 54.6663C87.2697 54.6663 86.2837 53.3913 86.2837 51.1643V46.8803H84.7027V45.2823H86.3007V42.0353H88.1537V45.2823H91.3157V46.8803H88.1537V51.1983C88.1537 52.3033 88.5447 52.9493 89.5647 52.9493C90.1597 52.9493 90.6867 52.7283 91.1797 52.4393ZM99.2798 45.2823H101.337L97.5458 55.2783C96.7298 57.4373 95.6758 58.3383 94.1288 58.3383C93.4998 58.3383 92.9558 58.2023 92.5648 57.9473L92.8368 56.3323C93.1768 56.4853 93.5848 56.6213 93.9758 56.6213C94.7068 56.6213 95.2848 56.1963 95.7778 55.0573L96.0668 54.3773L92.0888 45.2823H94.2478L96.9338 51.8953L99.2798 45.2823ZM111.46 42.9873C110.219 42.9873 109.573 43.6333 109.573 44.7893V45.2823H112.463V46.8803H109.573V54.4453H107.703V46.8803H106.173V45.2823H107.703V44.7553C107.703 42.4603 109.182 41.2703 111.222 41.2703C112.038 41.2703 112.803 41.4913 113.449 41.8313L112.854 43.3443C112.327 43.1233 111.919 42.9873 111.46 42.9873ZM122.197 49.6853C122.197 50.0593 122.163 50.3313 122.129 50.5863H114.972C115.227 51.8953 116.128 52.9833 118.015 52.9833C119.069 52.9833 120.31 52.5753 121.126 51.9973L121.908 53.3743C121.075 54.0203 119.596 54.6493 117.947 54.6493C114.496 54.6493 113.034 52.2523 113.034 49.8383C113.034 47.1183 114.904 45.0613 117.709 45.0613C120.276 45.0613 122.197 46.7783 122.197 49.6853ZM117.709 46.6763C116.281 46.6763 115.244 47.6453 114.972 49.0563H120.31C120.157 47.5943 119.086 46.6763 117.709 46.6763ZM132.673 49.6853C132.673 50.0593 132.639 50.3313 132.605 50.5863H125.448C125.703 51.8953 126.604 52.9833 128.491 52.9833C129.545 52.9833 130.786 52.5753 131.602 51.9973L132.384 53.3743C131.551 54.0203 130.072 54.6493 128.423 54.6493C124.972 54.6493 123.51 52.2523 123.51 49.8383C123.51 47.1183 125.38 45.0613 128.185 45.0613C130.752 45.0613 132.673 46.7783 132.673 49.6853ZM128.185 46.6763C126.757 46.6763 125.72 47.6453 125.448 49.0563H130.786C130.633 47.5943 129.562 46.6763 128.185 46.6763ZM141.602 41.5593H143.489V54.4453H141.636V53.1703C140.905 54.0713 139.885 54.6663 138.559 54.6663C135.907 54.6663 133.969 52.5583 133.969 49.8553C133.969 47.1863 135.924 45.0613 138.542 45.0613C139.885 45.0613 140.871 45.6733 141.602 46.5573V41.5593ZM138.797 52.9493C140.582 52.9493 141.738 51.5553 141.738 49.8553C141.738 48.1893 140.582 46.7783 138.797 46.7783C137.012 46.7783 135.856 48.1893 135.856 49.8553C135.856 51.5553 137.012 52.9493 138.797 52.9493Z" fill="white"/>
<line x1="18" y1="73.79" x2="248" y2="73.79" stroke="#2C2C30"/>
<line x1="18" y1="122.79" x2="248" y2="122.79" stroke="#2C2C30"/>
<rect x="19" y="74.29" width="229" height="49" fill="url(#paint1_linear_8300_78566)"/>
</g>
<rect x="34.7075" y="83.6361" width="29.9465" height="30.9465" rx="14.9733" stroke="#E2E8FF" stroke-opacity="0.1" stroke-width="1.05346"/>
<rect x="73.1808" y="88.29" width="39" height="21" rx="4" fill="#342C4C"/>
<path d="M82.9279 105.168C79.3868 105.168 77.1173 102.939 77.1173 99.4736V99.46C77.1173 96.083 79.4347 93.7656 82.8116 93.7656C86.0587 93.7656 88.3077 95.8301 88.3077 98.8037V98.8174C88.3077 101.025 87.296 102.42 85.6964 102.42C84.8898 102.42 84.2814 101.996 84.1515 101.34L84.1447 101.299H84.0284C83.7413 101.996 83.1466 102.372 82.3468 102.372C80.9249 102.372 79.9747 101.21 79.9747 99.4805V99.4668C79.9747 97.8125 80.9318 96.6641 82.3263 96.6641C83.0441 96.6641 83.6525 97.0264 83.9191 97.6279H84.0353V96.8008H85.1974V100.684C85.1974 101.162 85.4572 101.442 85.922 101.442C86.7286 101.442 87.2413 100.424 87.2413 98.8516V98.8379C87.2413 96.3701 85.423 94.709 82.7365 94.709C80.0773 94.709 78.1837 96.6982 78.1837 99.501V99.5146C78.1837 102.379 80.0568 104.218 82.9757 104.218C83.837 104.218 84.6984 104.102 85.1085 103.917V104.867C84.5206 105.059 83.7413 105.168 82.9279 105.168ZM82.5656 101.306C83.4337 101.306 83.9806 100.608 83.9806 99.5146V99.501C83.9806 98.4072 83.4337 97.71 82.5792 97.71C81.7316 97.71 81.2325 98.3799 81.2325 99.501V99.5146C81.2325 100.622 81.7384 101.306 82.5656 101.306ZM89.2456 103.609L92.8071 93.7451H94.4614L98.0229 103.609H96.4096L95.5209 100.943H91.7475L90.852 103.609H89.2456ZM93.5727 95.4746L92.1577 99.7129H95.1108L93.6889 95.4746H93.5727ZM99.4187 103.609V93.7451H100.95V98.4072H101.059L105.14 93.7451H106.952L103.137 98.0244L107.28 103.609H105.366L102.057 99.0635L100.95 100.321V103.609H99.4187Z" fill="#C0A6FF"/>
<rect x="121.181" y="93.6094" width="55" height="11" rx="5.5" fill="#1D1E20" fill-opacity="0.4"/>
<rect x="121.708" y="94.1361" width="53.9465" height="9.94654" rx="4.97327" stroke="#E2E8FF" stroke-opacity="0.1" stroke-width="1.05346"/>
<rect x="185.181" y="93.6094" width="70" height="11" rx="5.5" fill="#1D1E20" fill-opacity="0.4"/>
<rect x="185.708" y="94.1361" width="68.9465" height="9.94654" rx="4.97327" stroke="#E2E8FF" stroke-opacity="0.1" stroke-width="1.05346"/>
<rect x="34.7075" y="130.636" width="29.9465" height="30.9465" rx="14.9733" stroke="#E2E8FF" stroke-opacity="0.1" stroke-width="1.05346"/>
<rect x="72.9991" y="135.29" width="45" height="21" rx="4" fill="#342C4C"/>
<path d="M82.9279 152.168C79.3868 152.168 77.1173 149.939 77.1173 146.474V146.46C77.1173 143.083 79.4347 140.766 82.8116 140.766C86.0587 140.766 88.3077 142.83 88.3077 145.804V145.817C88.3077 148.025 87.296 149.42 85.6964 149.42C84.8898 149.42 84.2814 148.996 84.1515 148.34L84.1447 148.299H84.0284C83.7413 148.996 83.1466 149.372 82.3468 149.372C80.9249 149.372 79.9747 148.21 79.9747 146.48V146.467C79.9747 144.812 80.9318 143.664 82.3263 143.664C83.0441 143.664 83.6525 144.026 83.9191 144.628H84.0353V143.801H85.1974V147.684C85.1974 148.162 85.4572 148.442 85.922 148.442C86.7286 148.442 87.2413 147.424 87.2413 145.852V145.838C87.2413 143.37 85.423 141.709 82.7365 141.709C80.0773 141.709 78.1837 143.698 78.1837 146.501V146.515C78.1837 149.379 80.0568 151.218 82.9757 151.218C83.837 151.218 84.6984 151.102 85.1085 150.917V151.867C84.5206 152.059 83.7413 152.168 82.9279 152.168ZM82.5656 148.306C83.4337 148.306 83.9806 147.608 83.9806 146.515V146.501C83.9806 145.407 83.4337 144.71 82.5792 144.71C81.7316 144.71 81.2325 145.38 81.2325 146.501V146.515C81.2325 147.622 81.7384 148.306 82.5656 148.306ZM89.7309 150.609V149.563L95.0903 142.181V142.064H89.895V140.745H97.0112V141.791L91.6791 149.174V149.29H97.1411V150.609H89.7309ZM101.777 150.753C99.6033 150.753 98.2908 149.27 98.2908 146.918V146.911C98.2908 144.594 99.6306 143.042 101.702 143.042C103.773 143.042 105.045 144.539 105.045 146.768V147.287H99.781C99.8084 148.709 100.588 149.536 101.811 149.536C102.761 149.536 103.329 149.064 103.507 148.682L103.534 148.627L104.963 148.62L104.949 148.682C104.703 149.659 103.678 150.753 101.777 150.753ZM101.709 144.259C100.697 144.259 99.9314 144.949 99.8015 146.228H103.575C103.459 144.901 102.714 144.259 101.709 144.259ZM110.433 150.732C109.394 150.732 108.58 150.254 108.149 149.44H108.04V150.609H106.557V140.273H108.04V144.361H108.149C108.546 143.562 109.414 143.056 110.433 143.056C112.319 143.056 113.509 144.539 113.509 146.891V146.904C113.509 149.235 112.306 150.732 110.433 150.732ZM110.016 149.468C111.253 149.468 111.998 148.497 111.998 146.904V146.891C111.998 145.298 111.253 144.327 110.016 144.327C108.778 144.327 108.013 145.305 108.013 146.891V146.904C108.013 148.49 108.778 149.468 110.016 149.468Z" fill="#C0A6FF"/>
<rect x="127.181" y="140.609" width="69" height="11" rx="5.5" fill="#1D1E20" fill-opacity="0.4"/>
<rect x="127.708" y="141.136" width="67.9465" height="9.94654" rx="4.97327" stroke="#E2E8FF" stroke-opacity="0.1" stroke-width="1.05346"/>
<rect x="205.181" y="140.609" width="70" height="11" rx="5.5" fill="#1D1E20" fill-opacity="0.4"/>
<rect x="205.708" y="141.136" width="68.9465" height="9.94654" rx="4.97327" stroke="#E2E8FF" stroke-opacity="0.1" stroke-width="1.05346"/>
</g>
<defs>
<radialGradient id="paint0_radial_8300_78566" cx="0" cy="0" r="1" gradientUnits="userSpaceOnUse" gradientTransform="translate(259.5 196.29) rotate(-141.042) scale(194.829 212.903)">
<stop offset="0.185" stop-color="white" stop-opacity="0"/>
<stop offset="1" stop-color="white"/>
</radialGradient>
<linearGradient id="paint1_linear_8300_78566" x1="58.5" y1="85.79" x2="248" y2="98.79" gradientUnits="userSpaceOnUse">
<stop stop-color="#252525"/>
<stop offset="1" stop-color="#252525" stop-opacity="0"/>
</linearGradient>
<clipPath id="clip0_8300_78566">
<rect width="237" height="146" fill="white" transform="translate(18 18.29)"/>
</clipPath>
</defs>
</svg>
