<svg width="245" height="152" viewBox="0 0 245 152" fill="none" xmlns="http://www.w3.org/2000/svg">
<mask id="mask0_8300_78464" style="mask-type:alpha" maskUnits="userSpaceOnUse" x="0" y="0" width="245" height="158">
<rect y="0.97998" width="245" height="156.628" fill="url(#paint0_linear_8300_78464)"/>
</mask>
<g mask="url(#mask0_8300_78464)">
<rect x="20.1382" y="17.5811" width="28.0822" height="28.0822" rx="14.0411" fill="#1D1E20" fill-opacity="0.4"/>
<rect x="20.6649" y="18.1078" width="27.0287" height="27.0287" rx="13.5143" stroke="#E2E8FF" stroke-opacity="0.1" stroke-width="1.05346"/>
<rect x="59.9241" y="26.1533" width="123.174" height="10.9376" rx="5.46881" fill="#1D1E20" fill-opacity="0.4"/>
<rect x="60.4508" y="26.68" width="122.12" height="9.88417" rx="4.94208" stroke="#E2E8FF" stroke-opacity="0.1" stroke-width="1.05346"/>
<rect x="10.7773" y="56.6616" width="224.164" height="38.7977" rx="8" fill="#252525"/>
<rect x="11.3041" y="57.1883" width="223.111" height="37.7442" rx="7.47327" stroke="#E2E8FF" stroke-opacity="0.1" stroke-width="1.05346"/>
<rect x="20.1382" y="62.1782" width="28.0822" height="28.0822" rx="14.0411" fill="#353537"/>
<path d="M29.4577 70.9126C28.8115 70.9126 28.2876 71.4365 28.2876 72.0827C28.2876 72.7289 28.8115 73.2528 29.4577 73.2528C30.1039 73.2528 30.6278 72.7289 30.6278 72.0827C30.6278 71.4365 30.1039 70.9126 29.4577 70.9126Z" fill="white"/>
<path d="M32.3829 71.4976C32.0598 71.4976 31.7979 71.7596 31.7979 72.0827C31.7979 72.4058 32.0598 72.6677 32.3829 72.6677H39.4034C39.7265 72.6677 39.9885 72.4058 39.9885 72.0827C39.9885 71.7596 39.7265 71.4976 39.4034 71.4976H32.3829Z" fill="white"/>
<path d="M29.4577 75.0079C28.8115 75.0079 28.2876 75.5318 28.2876 76.178C28.2876 76.8242 28.8115 77.3481 29.4577 77.3481C30.1039 77.3481 30.6278 76.8242 30.6278 76.178C30.6278 75.5318 30.1039 75.0079 29.4577 75.0079Z" fill="white"/>
<path d="M32.3829 75.593C32.0598 75.593 31.7979 75.8549 31.7979 76.178C31.7979 76.5011 32.0598 76.763 32.3829 76.763H39.4034C39.7265 76.763 39.9885 76.5011 39.9885 76.178C39.9885 75.8549 39.7265 75.593 39.4034 75.593H32.3829Z" fill="white"/>
<path d="M29.4577 79.1032C28.8115 79.1032 28.2876 79.6271 28.2876 80.2733C28.2876 80.9195 28.8115 81.4434 29.4577 81.4434C30.1039 81.4434 30.6278 80.9195 30.6278 80.2733C30.6278 79.6271 30.1039 79.1032 29.4577 79.1032Z" fill="white"/>
<path d="M32.3829 79.6883C32.0598 79.6883 31.7979 79.9502 31.7979 80.2733C31.7979 80.5964 32.0598 80.8583 32.3829 80.8583H39.4034C39.7265 80.8583 39.9885 80.5964 39.9885 80.2733C39.9885 79.9502 39.7265 79.6883 39.4034 79.6883H32.3829Z" fill="white"/>
<path d="M67.1291 82.4062C63.5761 82.4062 60.6691 79.8222 60.6691 75.9802C60.6691 72.1042 63.6441 69.4352 67.1801 69.4352C69.5091 69.4352 71.5321 70.5572 72.5861 72.1382L71.1921 73.3962C70.2741 72.1722 68.8801 71.3392 67.2311 71.3392C64.7151 71.3392 62.6921 73.2942 62.6921 75.9802C62.6921 78.6492 64.6641 80.5192 67.2141 80.5192C68.8801 80.5192 70.3081 79.7202 71.2601 78.4792L72.6541 79.7032C71.5321 81.2502 69.5261 82.4062 67.1291 82.4062ZM74.2766 82.2192V69.3332H76.0956V74.2122C76.6226 73.4132 77.6766 72.8182 79.0026 72.8182C80.8726 72.8182 82.5896 74.0422 82.5896 76.6432V82.2192H80.7196V77.1702C80.7196 75.4362 79.8016 74.5522 78.5266 74.5522C77.1156 74.5522 76.1466 75.6232 76.1466 77.1872V82.2192H74.2766ZM92.0586 73.0562H93.8606V82.2192H92.0586V80.9612C91.3106 81.8452 90.2736 82.4402 88.9306 82.4402C86.2786 82.4402 84.3576 80.3152 84.3576 77.5782C84.3576 74.8412 86.2956 72.8352 88.9306 72.8352C90.2736 72.8352 91.3106 73.4472 92.0586 74.3312V73.0562ZM89.1856 80.7232C90.9536 80.7232 92.1436 79.3122 92.1436 77.6292C92.1436 75.9632 90.9536 74.5522 89.1856 74.5522C87.3836 74.5522 86.2446 75.9632 86.2446 77.6462C86.2446 79.3292 87.4006 80.7232 89.1856 80.7232ZM101.816 80.2132L102.462 81.6752C101.782 82.1852 100.83 82.4402 99.9287 82.4402C97.9057 82.4402 96.9197 81.1652 96.9197 78.9382V74.6542H95.3387V73.0562H96.9367V69.8092H98.7897V73.0562H101.952V74.6542H98.7897V78.9722C98.7897 80.0772 99.1807 80.7232 100.201 80.7232C100.796 80.7232 101.323 80.5022 101.816 80.2132ZM106.448 82.4402C105.105 82.4402 103.728 81.8452 102.929 80.5192L104.136 79.4312C104.731 80.3662 105.649 80.8252 106.482 80.8252C107.4 80.8252 107.995 80.2982 107.995 79.6862C107.995 79.1932 107.689 78.8702 107.213 78.6322C106.669 78.3602 105.513 77.9522 104.952 77.6462C103.949 77.1192 103.49 76.2862 103.49 75.3852C103.49 73.8892 104.697 72.7502 106.618 72.7502C107.757 72.7502 108.913 73.1922 109.627 74.1612L108.539 75.3172C107.961 74.6032 107.196 74.3142 106.533 74.3142C105.734 74.3142 105.309 74.7902 105.309 75.3172C105.309 75.6742 105.496 76.0652 106.074 76.3202C106.686 76.5922 107.587 76.9152 108.301 77.2892C109.287 77.7992 109.865 78.5132 109.865 79.6012C109.865 81.1652 108.505 82.4402 106.448 82.4402ZM126.505 81.1992L125.468 82.3892L123.496 80.6382C122.238 81.8282 120.929 82.3892 119.501 82.3892C117.104 82.3892 115.336 80.7402 115.336 78.7002C115.336 76.8302 116.39 75.7762 117.614 75.0452C117.155 74.3652 116.883 73.6002 116.883 72.6992C116.883 70.9652 118.345 69.4692 120.266 69.4692C121.881 69.4692 123.258 70.5912 123.258 72.1382C123.258 73.9742 121.592 74.7222 120.011 75.4872C120.266 75.7252 120.555 75.9802 120.878 76.2692L123.377 78.4452C123.802 77.9182 124.227 77.3232 124.618 76.6772L125.842 77.6632C125.4 78.3602 124.975 78.9722 124.55 79.4822L126.505 81.1992ZM120.198 70.8632C119.246 70.8632 118.515 71.6452 118.515 72.6992C118.515 73.3452 118.685 73.8552 118.991 74.3312C120.351 73.7192 121.558 73.2092 121.558 72.1722C121.558 71.4412 120.997 70.8632 120.198 70.8632ZM119.671 80.7912C120.674 80.7912 121.49 80.3492 122.323 79.5672L119.518 77.0682C119.212 76.7962 118.906 76.5242 118.634 76.2352C117.801 76.7962 117.189 77.4762 117.189 78.5812C117.189 79.8392 118.226 80.7912 119.671 80.7912ZM137.968 82.4062C134.415 82.4062 131.508 79.8222 131.508 75.9802C131.508 72.1042 134.483 69.4352 138.019 69.4352C140.348 69.4352 142.371 70.5572 143.425 72.1382L142.031 73.3962C141.113 72.1722 139.719 71.3392 138.07 71.3392C135.554 71.3392 133.531 73.2942 133.531 75.9802C133.531 78.6492 135.503 80.5192 138.053 80.5192C139.719 80.5192 141.147 79.7202 142.099 78.4792L143.493 79.7032C142.371 81.2502 140.365 82.4062 137.968 82.4062ZM145.115 82.2192V69.3332H146.934V74.2122C147.461 73.4132 148.515 72.8182 149.841 72.8182C151.711 72.8182 153.428 74.0422 153.428 76.6432V82.2192H151.558V77.1702C151.558 75.4362 150.64 74.5522 149.365 74.5522C147.954 74.5522 146.985 75.6232 146.985 77.1872V82.2192H145.115ZM162.897 73.0562H164.699V82.2192H162.897V80.9612C162.149 81.8452 161.112 82.4402 159.769 82.4402C157.117 82.4402 155.196 80.3152 155.196 77.5782C155.196 74.8412 157.134 72.8352 159.769 72.8352C161.112 72.8352 162.149 73.4472 162.897 74.3312V73.0562ZM160.024 80.7232C161.792 80.7232 162.982 79.3122 162.982 77.6292C162.982 75.9632 161.792 74.5522 160.024 74.5522C158.222 74.5522 157.083 75.9632 157.083 77.6462C157.083 79.3292 158.239 80.7232 160.024 80.7232ZM167.113 82.2192V73.0562H168.949V74.3482C169.476 73.4132 170.53 72.8182 171.856 72.8182C173.726 72.8182 175.46 74.0422 175.46 76.6432V82.2192H173.573V77.1702C173.573 75.4532 172.655 74.5522 171.38 74.5522C169.969 74.5522 168.983 75.6402 168.983 77.2042V82.2192H167.113ZM177.754 82.2192V73.0562H179.59V74.3482C180.117 73.4132 181.171 72.8182 182.497 72.8182C184.367 72.8182 186.101 74.0422 186.101 76.6432V82.2192H184.214V77.1702C184.214 75.4532 183.296 74.5522 182.021 74.5522C180.61 74.5522 179.624 75.6402 179.624 77.2042V82.2192H177.754ZM197.032 77.4592C197.032 77.8332 196.998 78.1052 196.964 78.3602H189.807C190.062 79.6692 190.963 80.7572 192.85 80.7572C193.904 80.7572 195.145 80.3492 195.961 79.7712L196.743 81.1482C195.91 81.7942 194.431 82.4232 192.782 82.4232C189.331 82.4232 187.869 80.0262 187.869 77.6122C187.869 74.8922 189.739 72.8352 192.544 72.8352C195.111 72.8352 197.032 74.5522 197.032 77.4592ZM192.544 74.4502C191.116 74.4502 190.079 75.4192 189.807 76.8302H195.145C194.992 75.3682 193.921 74.4502 192.544 74.4502ZM200.741 82.2192H198.871V69.3332H200.741V82.2192ZM205.875 82.4402C204.532 82.4402 203.155 81.8452 202.356 80.5192L203.563 79.4312C204.158 80.3662 205.076 80.8252 205.909 80.8252C206.827 80.8252 207.422 80.2982 207.422 79.6862C207.422 79.1932 207.116 78.8702 206.64 78.6322C206.096 78.3602 204.94 77.9522 204.379 77.6462C203.376 77.1192 202.917 76.2862 202.917 75.3852C202.917 73.8892 204.124 72.7502 206.045 72.7502C207.184 72.7502 208.34 73.1922 209.054 74.1612L207.966 75.3172C207.388 74.6032 206.623 74.3142 205.96 74.3142C205.161 74.3142 204.736 74.7902 204.736 75.3172C204.736 75.6742 204.923 76.0652 205.501 76.3202C206.113 76.5922 207.014 76.9152 207.728 77.2892C208.714 77.7992 209.292 78.5132 209.292 79.6012C209.292 81.1652 207.932 82.4402 205.875 82.4402Z" fill="white"/>
<rect x="20.1382" y="106.458" width="28.0822" height="28.0822" rx="14.0411" fill="#1D1E20" fill-opacity="0.4"/>
<rect x="20.6649" y="106.985" width="27.0287" height="27.0287" rx="13.5143" stroke="#E2E8FF" stroke-opacity="0.1" stroke-width="1.05346"/>
<rect x="59.9241" y="115.03" width="90.5398" height="10.9376" rx="5.46881" fill="#1D1E20" fill-opacity="0.4"/>
<rect x="60.4508" y="115.557" width="89.4863" height="9.88417" rx="4.94208" stroke="#E2E8FF" stroke-opacity="0.1" stroke-width="1.05346"/>
</g>
<defs>
<linearGradient id="paint0_linear_8300_78464" x1="89" y1="31.98" x2="133.324" y2="161.821" gradientUnits="userSpaceOnUse">
<stop offset="0.360388" stop-color="white"/>
<stop offset="0.88444" stop-color="white" stop-opacity="0"/>
</linearGradient>
</defs>
</svg>
