<svg width="246" height="151" viewBox="0 0 246 151" fill="none" xmlns="http://www.w3.org/2000/svg">
<g clip-path="url(#clip0_5322_68629)">
<mask id="mask0_5322_68629" style="mask-type:alpha" maskUnits="userSpaceOnUse" x="9" y="8" width="357" height="298">
<rect x="9.5" y="8.14136" width="356" height="297" fill="url(#paint0_radial_5322_68629)"/>
</mask>
<g mask="url(#mask0_5322_68629)">
<g filter="url(#filter0_b_5322_68629)">
<g clip-path="url(#clip1_5322_68629)">
<rect x="18.5" y="18.1414" width="487" height="163" rx="8" fill="#1D1E20" fill-opacity="0.4"/>
<path d="M42.711 52.1414L39.651 47.2114H37.985V52.1414H36.03V39.5784H40.467C43.221 39.5784 44.53 41.4654 44.53 43.4034C44.53 44.9504 43.629 46.4974 41.725 47.0244L45.074 52.1414H42.711ZM37.985 41.4314V45.3924H40.161C41.878 45.3924 42.507 44.3894 42.507 43.3864C42.507 42.3494 41.827 41.4314 40.467 41.4314H37.985ZM55.1506 47.3814C55.1506 47.7554 55.1166 48.0274 55.0826 48.2824H47.9256C48.1806 49.5914 49.0816 50.6794 50.9686 50.6794C52.0226 50.6794 53.2636 50.2714 54.0796 49.6934L54.8616 51.0704C54.0286 51.7164 52.5496 52.3454 50.9006 52.3454C47.4496 52.3454 45.9876 49.9484 45.9876 47.5344C45.9876 44.8144 47.8576 42.7574 50.6626 42.7574C53.2296 42.7574 55.1506 44.4744 55.1506 47.3814ZM50.6626 44.3724C49.2346 44.3724 48.1976 45.3414 47.9256 46.7524H53.2636C53.1106 45.2904 52.0396 44.3724 50.6626 44.3724ZM67.7342 42.7234C69.9102 42.7234 71.4062 44.2024 71.4062 46.6674V52.1414H69.5362V46.9734C69.5362 45.3244 68.6862 44.4744 67.4452 44.4744C66.1022 44.4744 65.1502 45.4774 65.1502 47.0244V52.1414H63.2802V47.0074C63.2802 45.4094 62.4642 44.4744 61.1722 44.4744C59.8462 44.4744 58.8602 45.4604 58.8602 47.0584V52.1414H56.9902V42.9784H58.8262V44.3044C59.3532 43.3524 60.3902 42.7234 61.5972 42.7234C62.7532 42.7404 63.8922 43.3014 64.4192 44.4064C65.0482 43.3864 66.3232 42.7234 67.7342 42.7234ZM74.694 41.7714C73.963 41.7714 73.402 41.2274 73.402 40.4964C73.402 39.7824 73.963 39.2554 74.694 39.2554C75.391 39.2554 75.935 39.7824 75.935 40.4964C75.935 41.2274 75.391 41.7714 74.694 41.7714ZM75.595 52.1414H73.725V42.9784H75.595V52.1414ZM78.0078 52.1414V42.9784H79.8438V44.2704C80.3708 43.3354 81.4248 42.7404 82.7508 42.7404C84.6208 42.7404 86.3548 43.9644 86.3548 46.5654V52.1414H84.4678V47.0924C84.4678 45.3754 83.5498 44.4744 82.2748 44.4744C80.8638 44.4744 79.8778 45.5624 79.8778 47.1264V52.1414H78.0078ZM95.7384 39.2554H97.6254V52.1414H95.7724V50.8664C95.0414 51.7674 94.0214 52.3624 92.6954 52.3624C90.0434 52.3624 88.1054 50.2544 88.1054 47.5514C88.1054 44.8824 90.0604 42.7574 92.6784 42.7574C94.0214 42.7574 95.0074 43.3694 95.7384 44.2534V39.2554ZM92.9334 50.6454C94.7184 50.6454 95.8744 49.2514 95.8744 47.5514C95.8744 45.8854 94.7184 44.4744 92.9334 44.4744C91.1484 44.4744 89.9924 45.8854 89.9924 47.5514C89.9924 49.2514 91.1484 50.6454 92.9334 50.6454ZM108.674 47.3814C108.674 47.7554 108.64 48.0274 108.606 48.2824H101.449C101.704 49.5914 102.605 50.6794 104.492 50.6794C105.546 50.6794 106.787 50.2714 107.603 49.6934L108.385 51.0704C107.552 51.7164 106.073 52.3454 104.424 52.3454C100.973 52.3454 99.5111 49.9484 99.5111 47.5344C99.5111 44.8144 101.381 42.7574 104.186 42.7574C106.753 42.7574 108.674 44.4744 108.674 47.3814ZM104.186 44.3724C102.758 44.3724 101.721 45.3414 101.449 46.7524H106.787C106.634 45.2904 105.563 44.3724 104.186 44.3724ZM110.514 52.1414V42.9784H112.299V44.2874C112.86 43.2334 113.727 42.7404 114.9 42.7404C115.223 42.7404 115.597 42.7744 115.988 42.8934L115.818 44.7124C115.478 44.5934 115.138 44.5424 114.815 44.5424C113.489 44.5424 112.384 45.4094 112.384 47.4494V52.1414H110.514ZM119.891 52.3624C118.548 52.3624 117.171 51.7674 116.372 50.4414L117.579 49.3534C118.174 50.2884 119.092 50.7474 119.925 50.7474C120.843 50.7474 121.438 50.2204 121.438 49.6084C121.438 49.1154 121.132 48.7924 120.656 48.5544C120.112 48.2824 118.956 47.8744 118.395 47.5684C117.392 47.0414 116.933 46.2084 116.933 45.3074C116.933 43.8114 118.14 42.6724 120.061 42.6724C121.2 42.6724 122.356 43.1144 123.07 44.0834L121.982 45.2394C121.404 44.5254 120.639 44.2364 119.976 44.2364C119.177 44.2364 118.752 44.7124 118.752 45.2394C118.752 45.5964 118.939 45.9874 119.517 46.2424C120.129 46.5144 121.03 46.8374 121.744 47.2114C122.73 47.7214 123.308 48.4354 123.308 49.5234C123.308 51.0874 121.948 52.3624 119.891 52.3624Z" fill="white"/>
<path d="M136.5 39.1414C136.5 36.9322 138.291 35.1414 140.5 35.1414H205.5C207.709 35.1414 209.5 36.9322 209.5 39.1414V53.1414C209.5 55.3505 207.709 57.1414 205.5 57.1414H140.5C138.291 57.1414 136.5 55.3505 136.5 53.1414V39.1414Z" fill="#2D1B2D"/>
<path d="M142.353 40.9057C143.181 40.105 144.501 40.1173 145.353 40.8923C145.505 41.0315 145.454 41.281 145.261 41.3521C144.1 41.7792 143.119 42.5653 142.445 43.57C142.332 43.7372 142.083 43.7306 141.981 43.5566C141.497 42.7214 141.611 41.6235 142.353 40.9057Z" fill="#9C2BAD"/>
<path d="M152.766 40.887C151.927 40.0991 150.607 40.1318 149.767 40.9198C149.617 41.0613 149.672 41.31 149.866 41.3781C151.034 41.7873 152.027 42.5582 152.716 43.5524C152.831 43.7178 153.081 43.7075 153.179 43.5319C153.651 42.6893 153.52 41.5933 152.766 40.887Z" fill="#9C2BAD"/>
<path d="M148.083 44.9748C148.083 44.6526 147.821 44.3914 147.499 44.3914C147.177 44.3914 146.916 44.6526 146.916 44.9748V47.0164C146.916 47.1711 146.977 47.3195 147.087 47.4289L148.424 48.7164C148.652 48.9442 149.021 48.9442 149.249 48.7164C149.477 48.4886 149.477 48.1192 149.249 47.8914L148.083 46.7748V44.9748Z" fill="#9C2BAD"/>
<path fill-rule="evenodd" clip-rule="evenodd" d="M142.574 46.9472C142.574 44.1706 144.825 41.9197 147.602 41.9197C150.378 41.9197 152.629 44.1706 152.629 46.9472C152.629 48.0307 152.287 49.0341 151.704 49.855L152.803 50.9544C153.036 51.1878 153.036 51.5663 152.803 51.7997C152.57 52.0331 152.191 52.0331 151.958 51.7997L150.9 50.7418C150.017 51.5098 148.864 51.9747 147.602 51.9747C146.338 51.9747 145.184 51.5087 144.301 50.7392L143.24 51.7996C143.007 52.0331 142.628 52.0331 142.395 51.7996C142.162 51.5662 142.162 51.1878 142.395 50.9544L143.498 49.8517C142.916 49.0314 142.574 48.0292 142.574 46.9472ZM147.602 43.1068C145.481 43.1068 143.761 44.8262 143.761 46.9472C143.761 49.0682 145.481 50.7877 147.602 50.7877C149.723 50.7877 151.442 49.0682 151.442 46.9472C151.442 44.8262 149.723 43.1068 147.602 43.1068Z" fill="#9C2BAD"/>
<rect x="158.5" y="42.1414" width="47" height="8" rx="4" fill="#7B2488"/>
<rect x="215.5" y="40.8914" width="72" height="10.5" rx="5.25" fill="#1D1E20" fill-opacity="0.4"/>
<rect x="216.027" y="41.4181" width="70.9465" height="9.44654" rx="4.72327" stroke="#E2E8FF" stroke-opacity="0.1" stroke-width="1.05346"/>
<rect x="34.5" y="70.1414" width="32" height="32" rx="16" fill="#1D1E20" fill-opacity="0.4"/>
<rect x="35.0267" y="70.6681" width="30.9465" height="30.9465" rx="15.4733" stroke="#E2E8FF" stroke-opacity="0.1" stroke-width="1.05346"/>
<rect x="74.5" y="70.1414" width="88" height="10" rx="5" fill="#1D1E20" fill-opacity="0.4"/>
<rect x="75.0267" y="70.6681" width="86.9465" height="8.94654" rx="4.47327" stroke="#E2E8FF" stroke-opacity="0.1" stroke-width="1.05346"/>
<rect x="170.5" y="70.1414" width="25" height="10" rx="5" fill="#1D1E20" fill-opacity="0.4"/>
<rect x="171.027" y="70.6681" width="23.9465" height="8.94654" rx="4.47327" stroke="#E2E8FF" stroke-opacity="0.1" stroke-width="1.05346"/>
<rect x="75" y="92.6414" width="243" height="39" rx="7.5" fill="#1B1B1B"/>
<rect x="75" y="92.6414" width="243" height="39" rx="7.5" stroke="#303030"/>
<path fill-rule="evenodd" clip-rule="evenodd" d="M90.744 111.553C90.6176 111.702 90.5676 111.793 90.5435 111.867C90.4855 112.045 90.4855 112.237 90.5435 112.416C90.5676 112.49 90.6176 112.581 90.744 112.73C90.8738 112.883 91.0564 113.066 91.3254 113.335L93.3067 115.316C93.5757 115.585 93.7588 115.768 93.9117 115.897C94.0606 116.024 94.1514 116.074 94.2255 116.098C94.4039 116.156 94.5961 116.156 94.7745 116.098C94.8486 116.074 94.9394 116.024 95.0883 115.897C95.2412 115.768 95.4243 115.585 95.6932 115.316L97.6746 113.335C97.9436 113.066 98.1262 112.883 98.256 112.73C98.3824 112.581 98.4324 112.49 98.4565 112.416C98.5145 112.237 98.5145 112.045 98.4565 111.867C98.4324 111.793 98.3824 111.702 98.256 111.553C98.1262 111.4 97.9436 111.217 97.6746 110.948L95.6933 108.967C95.4243 108.698 95.2412 108.515 95.0883 108.385C94.9394 108.259 94.8486 108.209 94.7745 108.185C94.5961 108.127 94.4039 108.127 94.2255 108.185C94.1514 108.209 94.0606 108.259 93.9117 108.385C93.7588 108.515 93.5757 108.698 93.3068 108.967L91.3254 110.948C91.0564 111.217 90.8738 111.4 90.744 111.553Z" fill="#2E2F32"/>
<path fill-rule="evenodd" clip-rule="evenodd" d="M88.7757 109.429L91.7871 106.417C92.1663 106.038 92.4793 105.725 92.7551 105.491C93.0415 105.248 93.3314 105.051 93.6765 104.939C94.2117 104.765 94.7883 104.765 95.3235 104.939C95.6686 105.051 95.9585 105.248 96.2449 105.491C96.5207 105.725 96.8336 106.038 97.2128 106.417L100.224 109.429C100.604 109.808 100.916 110.121 101.151 110.397C101.394 110.683 101.591 110.973 101.703 111.318C101.877 111.853 101.877 112.43 101.703 112.965C101.591 113.31 101.394 113.6 101.151 113.886C100.916 114.162 100.603 114.475 100.224 114.854L97.2128 117.866C96.8336 118.245 96.5207 118.558 96.2449 118.792C95.9585 119.035 95.6686 119.232 95.3235 119.344C94.7883 119.518 94.2117 119.518 93.6765 119.344C93.3314 119.232 93.0415 119.035 92.7551 118.792C92.4793 118.558 92.1663 118.245 91.7871 117.866L88.7757 114.854C88.3965 114.475 88.0835 114.162 87.8494 113.886C87.6062 113.6 87.4092 113.31 87.2971 112.965C87.1232 112.43 87.1232 111.853 87.2971 111.318C87.4092 110.973 87.6062 110.683 87.8494 110.397C88.0835 110.121 88.3965 109.808 88.7757 109.429ZM88.8651 111.259C88.6755 111.482 88.6005 111.618 88.5643 111.73C88.4774 111.997 88.4774 112.286 88.5643 112.553C88.6005 112.664 88.6755 112.801 88.8651 113.024C89.0599 113.253 89.3338 113.528 89.7373 113.932L92.7098 116.904C93.1134 117.308 93.3881 117.582 93.6174 117.776C93.8408 117.966 93.977 118.041 94.0882 118.077C94.3559 118.164 94.6441 118.164 94.9117 118.077C95.023 118.041 95.1592 117.966 95.3826 117.776C95.6119 117.582 95.8866 117.308 96.2901 116.904L99.2627 113.932C99.6662 113.528 99.9401 113.253 100.135 113.024C100.324 112.801 100.4 112.664 100.436 112.553C100.523 112.286 100.523 111.997 100.436 111.73C100.4 111.618 100.324 111.482 100.135 111.259C99.9401 111.029 99.6662 110.755 99.2627 110.351L96.2901 107.379C95.8866 106.975 95.6119 106.701 95.3826 106.507C95.1592 106.317 95.023 106.242 94.9117 106.206C94.6441 106.119 94.3559 106.119 94.0882 106.206C93.977 106.242 93.8408 106.317 93.6174 106.507C93.3881 106.701 93.1134 106.975 92.7099 107.379L89.7373 110.351C89.3338 110.755 89.0599 111.03 88.8651 111.259Z" fill="#2E2F32"/>
<rect x="108.5" y="107.141" width="105" height="10" rx="5" fill="#1D1E20" fill-opacity="0.4"/>
<rect x="109.027" y="107.668" width="103.947" height="8.94654" rx="4.47327" stroke="#E2E8FF" stroke-opacity="0.1" stroke-width="1.05346"/>
</g>
<rect x="19" y="18.6414" width="486" height="162" rx="7.5" stroke="#373737"/>
</g>
</g>
</g>
<defs>
<filter id="filter0_b_5322_68629" x="-61.5" y="-61.8586" width="647" height="323" filterUnits="userSpaceOnUse" color-interpolation-filters="sRGB">
<feFlood flood-opacity="0" result="BackgroundImageFix"/>
<feGaussianBlur in="BackgroundImageFix" stdDeviation="40"/>
<feComposite in2="SourceAlpha" operator="in" result="effect1_backgroundBlur_5322_68629"/>
<feBlend mode="normal" in="SourceGraphic" in2="effect1_backgroundBlur_5322_68629" result="shape"/>
</filter>
<radialGradient id="paint0_radial_5322_68629" cx="0" cy="0" r="1" gradientUnits="userSpaceOnUse" gradientTransform="translate(40.7005 18.5832) rotate(87.7922) scale(219.896 263.592)">
<stop offset="0.349016" stop-color="white"/>
<stop offset="1" stop-color="white" stop-opacity="0"/>
</radialGradient>
<clipPath id="clip0_5322_68629">
<rect width="245" height="150.161" fill="white" transform="translate(0.5 0.141357)"/>
</clipPath>
<clipPath id="clip1_5322_68629">
<rect x="18.5" y="18.1414" width="487" height="163" rx="8" fill="white"/>
</clipPath>
</defs>
</svg>
