<svg width="246" height="151" viewBox="0 0 246 151" fill="none" xmlns="http://www.w3.org/2000/svg">
<g clip-path="url(#clip0_5322_68716)">
<mask id="mask0_5322_68716" style="mask-type:alpha" maskUnits="userSpaceOnUse" x="9" y="8" width="254" height="166">
<rect x="9.5" y="8.14136" width="252.973" height="165.841" fill="url(#paint0_radial_5322_68716)"/>
</mask>
<g mask="url(#mask0_5322_68716)">
<g filter="url(#filter0_b_5322_68716)">
<g clip-path="url(#clip1_5322_68716)">
<rect x="18.5" y="18.1414" width="280" height="171" rx="8" fill="#1D1E20" fill-opacity="0.4"/>
<rect x="42.5" y="37.1809" width="24" height="24" rx="6" fill="#1D1E20" fill-opacity="0.4"/>
<rect x="43.0267" y="37.7076" width="22.9465" height="22.9465" rx="5.47327" stroke="#E2E8FF" stroke-opacity="0.1" stroke-width="1.05346"/>
<rect x="78.204" y="44.1809" width="63" height="10" rx="5" fill="#1D1E20" fill-opacity="0.4"/>
<rect x="78.7307" y="44.7076" width="61.9465" height="8.94654" rx="4.47327" stroke="#E2E8FF" stroke-opacity="0.1" stroke-width="1.05346"/>
<rect x="35" y="70.7205" width="194" height="39" rx="7.5" fill="url(#paint1_linear_5322_68716)"/>
<rect x="35" y="70.7205" width="194" height="39" rx="7.5" stroke="#373737"/>
<path d="M42.5 84.2205C42.5 80.9068 45.1863 78.2205 48.5 78.2205H60.5C63.8137 78.2205 66.5 80.9068 66.5 84.2205V96.2205C66.5 99.5342 63.8137 102.22 60.5 102.22H48.5C45.1863 102.22 42.5 99.5342 42.5 96.2205V84.2205Z" fill="#353537"/>
<path fill-rule="evenodd" clip-rule="evenodd" d="M48.5416 85.1456C48.7092 84.9746 48.9641 84.9233 49.1847 85.0162L60.268 89.6829C60.4843 89.7739 60.625 89.9858 60.625 90.2205C60.625 90.4552 60.4843 90.667 60.268 90.7581L49.1847 95.4248C48.9641 95.5176 48.7092 95.4664 48.5416 95.2954C48.3741 95.1244 48.3281 94.8685 48.4254 94.6498L50.3979 90.2205L48.4254 85.7911C48.3281 85.5725 48.3741 85.3165 48.5416 85.1456ZM50.0911 86.6637L51.5693 89.9832C51.6366 90.1342 51.6366 90.3067 51.5693 90.4578L50.0911 93.7772L58.5384 90.2205L50.0911 86.6637Z" fill="white"/>
<path fill-rule="evenodd" clip-rule="evenodd" d="M50.4167 90.2205C50.4167 89.8983 50.6778 89.6371 51 89.6371H60.0417C60.3638 89.6371 60.625 89.8983 60.625 90.2205C60.625 90.5426 60.3638 90.8038 60.0417 90.8038H51C50.6778 90.8038 50.4167 90.5426 50.4167 90.2205Z" fill="white"/>
<path d="M78.03 96.2205V83.6575H82.773C86.411 83.6575 88.638 86.0885 88.638 89.9645C88.638 93.8065 86.377 96.2205 82.62 96.2205H78.03ZM79.985 94.3505H82.705C85.238 94.3505 86.598 92.3955 86.598 89.9135C86.598 87.4655 85.238 85.5275 82.722 85.5275H79.985V94.3505ZM90.6396 96.2205V87.0575H92.4246V88.3665C92.9856 87.3125 93.8526 86.8195 95.0256 86.8195C95.3486 86.8195 95.7226 86.8535 96.1136 86.9725L95.9436 88.7915C95.6036 88.6725 95.2636 88.6215 94.9406 88.6215C93.6146 88.6215 92.5096 89.4885 92.5096 91.5285V96.2205H90.6396ZM104.188 87.0575H105.99V96.2205H104.188V94.9625C103.44 95.8465 102.403 96.4415 101.06 96.4415C98.4082 96.4415 96.4872 94.3165 96.4872 91.5795C96.4872 88.8425 98.4252 86.8365 101.06 86.8365C102.403 86.8365 103.44 87.4485 104.188 88.3325V87.0575ZM101.315 94.7245C103.083 94.7245 104.273 93.3135 104.273 91.6305C104.273 89.9645 103.083 88.5535 101.315 88.5535C99.5132 88.5535 98.3742 89.9645 98.3742 91.6475C98.3742 93.3305 99.5302 94.7245 101.315 94.7245ZM112.942 84.7625C111.701 84.7625 111.055 85.4085 111.055 86.5645V87.0575H113.945V88.6555H111.055V96.2205H109.185V88.6555H107.655V87.0575H109.185V86.5305C109.185 84.2355 110.664 83.0455 112.704 83.0455C113.52 83.0455 114.285 83.2665 114.931 83.6065L114.336 85.1195C113.809 84.8985 113.401 84.7625 112.942 84.7625ZM120.868 94.2145L121.514 95.6765C120.834 96.1865 119.882 96.4415 118.981 96.4415C116.958 96.4415 115.972 95.1665 115.972 92.9395V88.6555H114.391V87.0575H115.989V83.8105H117.842V87.0575H121.004V88.6555H117.842V92.9735C117.842 94.0785 118.233 94.7245 119.253 94.7245C119.848 94.7245 120.375 94.5035 120.868 94.2145ZM125.5 96.4415C124.157 96.4415 122.78 95.8465 121.981 94.5205L123.188 93.4325C123.783 94.3675 124.701 94.8265 125.534 94.8265C126.452 94.8265 127.047 94.2995 127.047 93.6875C127.047 93.1945 126.741 92.8715 126.265 92.6335C125.721 92.3615 124.565 91.9535 124.004 91.6475C123.001 91.1205 122.542 90.2875 122.542 89.3865C122.542 87.8905 123.749 86.7515 125.67 86.7515C126.809 86.7515 127.965 87.1935 128.679 88.1625L127.591 89.3185C127.013 88.6045 126.248 88.3155 125.585 88.3155C124.786 88.3155 124.361 88.7915 124.361 89.3185C124.361 89.6755 124.548 90.0665 125.126 90.3215C125.738 90.5935 126.639 90.9165 127.353 91.2905C128.339 91.8005 128.917 92.5145 128.917 93.6025C128.917 95.1665 127.557 96.4415 125.5 96.4415ZM145.558 95.2005L144.521 96.3905L142.549 94.6395C141.291 95.8295 139.982 96.3905 138.554 96.3905C136.157 96.3905 134.389 94.7415 134.389 92.7015C134.389 90.8315 135.443 89.7775 136.667 89.0465C136.208 88.3665 135.936 87.6015 135.936 86.7005C135.936 84.9665 137.398 83.4705 139.319 83.4705C140.934 83.4705 142.311 84.5925 142.311 86.1395C142.311 87.9755 140.645 88.7235 139.064 89.4885C139.319 89.7265 139.608 89.9815 139.931 90.2705L142.43 92.4465C142.855 91.9195 143.28 91.3245 143.671 90.6785L144.895 91.6645C144.453 92.3615 144.028 92.9735 143.603 93.4835L145.558 95.2005ZM139.251 84.8645C138.299 84.8645 137.568 85.6465 137.568 86.7005C137.568 87.3465 137.738 87.8565 138.044 88.3325C139.404 87.7205 140.611 87.2105 140.611 86.1735C140.611 85.4425 140.05 84.8645 139.251 84.8645ZM138.724 94.7925C139.727 94.7925 140.543 94.3505 141.376 93.5685L138.571 91.0695C138.265 90.7975 137.959 90.5255 137.687 90.2365C136.854 90.7975 136.242 91.4775 136.242 92.5825C136.242 93.8405 137.279 94.7925 138.724 94.7925ZM154.658 96.4245C152.873 96.4245 151.156 95.5915 150.221 93.9255L151.547 92.6505C152.278 93.9595 153.451 94.5715 154.658 94.5715C156.001 94.5715 156.8 93.7725 156.8 92.8545C156.8 92.0725 156.222 91.5965 155.559 91.2395C154.726 90.8145 153.706 90.4745 152.839 89.9645C151.751 89.3015 150.934 88.3495 150.934 86.9215C150.934 84.9835 152.482 83.4365 154.879 83.4365C156.256 83.4365 157.667 83.9635 158.704 85.2385L157.497 86.5815C156.766 85.6635 155.729 85.2895 154.896 85.2895C153.825 85.2895 153.026 85.8845 153.026 86.8195C153.026 87.5505 153.536 88.0095 154.08 88.3155C154.76 88.7065 156.171 89.2675 157.038 89.7605C158.177 90.3895 158.959 91.3075 158.959 92.7525C158.959 94.9115 157.157 96.4245 154.658 96.4245ZM169.484 91.4605C169.484 91.8345 169.45 92.1065 169.416 92.3615H162.259C162.514 93.6705 163.415 94.7585 165.302 94.7585C166.356 94.7585 167.597 94.3505 168.413 93.7725L169.195 95.1495C168.362 95.7955 166.883 96.4245 165.234 96.4245C161.783 96.4245 160.321 94.0275 160.321 91.6135C160.321 88.8935 162.191 86.8365 164.996 86.8365C167.563 86.8365 169.484 88.5535 169.484 91.4605ZM164.996 88.4515C163.568 88.4515 162.531 89.4205 162.259 90.8315H167.597C167.444 89.3695 166.373 88.4515 164.996 88.4515ZM171.323 96.2205V87.0575H173.159V88.3495C173.686 87.4145 174.74 86.8195 176.066 86.8195C177.936 86.8195 179.67 88.0435 179.67 90.6445V96.2205H177.783V91.1715C177.783 89.4545 176.865 88.5535 175.59 88.5535C174.179 88.5535 173.193 89.6415 173.193 91.2055V96.2205H171.323ZM187.407 94.2145L188.053 95.6765C187.373 96.1865 186.421 96.4415 185.52 96.4415C183.497 96.4415 182.511 95.1665 182.511 92.9395V88.6555H180.93V87.0575H182.528V83.8105H184.381V87.0575H187.543V88.6555H184.381V92.9735C184.381 94.0785 184.772 94.7245 185.792 94.7245C186.387 94.7245 186.914 94.5035 187.407 94.2145Z" fill="white"/>
<rect x="42.5" y="119.26" width="24" height="24" rx="6" fill="#1D1E20" fill-opacity="0.4"/>
<rect x="43.0267" y="119.787" width="22.9465" height="22.9465" rx="5.47327" stroke="#E2E8FF" stroke-opacity="0.1" stroke-width="1.05346"/>
<rect x="78.204" y="126.26" width="63" height="10" rx="5" fill="#1D1E20" fill-opacity="0.4"/>
<rect x="78.7307" y="126.787" width="61.9465" height="8.94654" rx="4.47327" stroke="#E2E8FF" stroke-opacity="0.1" stroke-width="1.05346"/>
</g>
<rect x="19" y="18.6414" width="279" height="170" rx="7.5" stroke="#373737"/>
</g>
</g>
</g>
<defs>
<filter id="filter0_b_5322_68716" x="-61.5" y="-61.8586" width="440" height="331" filterUnits="userSpaceOnUse" color-interpolation-filters="sRGB">
<feFlood flood-opacity="0" result="BackgroundImageFix"/>
<feGaussianBlur in="BackgroundImageFix" stdDeviation="40"/>
<feComposite in2="SourceAlpha" operator="in" result="effect1_backgroundBlur_5322_68716"/>
<feBlend mode="normal" in="SourceGraphic" in2="effect1_backgroundBlur_5322_68716" result="shape"/>
</filter>
<radialGradient id="paint0_radial_5322_68716" cx="0" cy="0" r="1" gradientUnits="userSpaceOnUse" gradientTransform="translate(317.69 181.776) rotate(-152.809) scale(295.404 326.382)">
<stop offset="0.318646" stop-color="white" stop-opacity="0"/>
<stop offset="0.783236" stop-color="white"/>
</radialGradient>
<linearGradient id="paint1_linear_5322_68716" x1="34.5" y1="90.2205" x2="229.5" y2="90.2205" gradientUnits="userSpaceOnUse">
<stop stop-color="#252525"/>
<stop offset="1" stop-color="#252525"/>
</linearGradient>
<clipPath id="clip0_5322_68716">
<rect width="245" height="150.161" fill="white" transform="translate(0.5 0.141357)"/>
</clipPath>
<clipPath id="clip1_5322_68716">
<rect x="18.5" y="18.1414" width="280" height="171" rx="8" fill="white"/>
</clipPath>
</defs>
</svg>
