<svg width="246" height="151" viewBox="0 0 246 151" fill="none" xmlns="http://www.w3.org/2000/svg">
<g clip-path="url(#clip0_5322_68666)">
<mask id="mask0_5322_68666" style="mask-type:alpha" maskUnits="userSpaceOnUse" x="9" y="8" width="357" height="298">
<rect x="9.5" y="8.14136" width="356" height="297" fill="url(#paint0_radial_5322_68666)"/>
</mask>
<g mask="url(#mask0_5322_68666)">
<g filter="url(#filter0_b_5322_68666)">
<g clip-path="url(#clip1_5322_68666)">
<rect x="18.5" y="18.1414" width="280" height="171" rx="8" fill="#1D1E20" fill-opacity="0.4"/>
<rect x="35" y="34.6414" width="194" height="39" rx="7.5" stroke="#373737" stroke-dasharray="2 2"/>
<rect x="34.5" y="133.141" width="24" height="24" rx="12" fill="#1D1E20" fill-opacity="0.4"/>
<rect x="35.0267" y="133.668" width="22.9465" height="22.9465" rx="11.4733" stroke="#E2E8FF" stroke-opacity="0.1" stroke-width="1.05346"/>
<rect x="68.5" y="138.141" width="132" height="14" rx="7" fill="#1D1E20" fill-opacity="0.4"/>
<rect x="69.0267" y="138.668" width="130.947" height="12.9465" rx="6.47327" stroke="#E2E8FF" stroke-opacity="0.1" stroke-width="1.05346"/>
</g>
<rect x="19" y="18.6414" width="279" height="170" rx="7.5" stroke="#373737"/>
</g>
<rect x="45.2217" y="44.3922" width="271" height="39" rx="7.5" transform="rotate(-2 45.2217 44.3922)" fill="#181818"/>
<rect x="45.2217" y="44.3922" width="271" height="39" rx="7.5" transform="rotate(-2 45.2217 44.3922)" fill="url(#paint1_linear_5322_68666)"/>
<rect x="45.2217" y="44.3922" width="271" height="39" rx="7.5" transform="rotate(-2 45.2217 44.3922)" stroke="#373737"/>
<rect x="52.9788" y="51.6257" width="24" height="24" rx="12" transform="rotate(-2 52.9788 51.6257)" fill="#12A594"/>
<path d="M67.373 60.879L63.2271 61.0237C63.5057 58.9268 64.2505 57.4233 65.1875 57.3906C66.101 57.3587 66.9723 58.8057 67.373 60.879ZM63.1417 63.2781C63.1237 62.7628 63.1299 62.2701 63.1596 61.7766L67.4929 61.6252C67.5569 62.1155 67.5975 62.6066 67.6155 63.1219C67.6343 63.6606 67.6281 64.1533 67.5976 64.6234L63.2643 64.7747C63.2011 64.3079 63.1605 63.8168 63.1417 63.2781ZM70.6523 60.7644L68.1226 60.8528C67.866 59.5484 67.4495 58.3669 66.8361 57.591C68.5397 58.024 69.9416 59.218 70.6523 60.7644ZM63.5334 57.7063C62.9756 58.5232 62.6426 59.7308 62.4776 61.0499L59.9479 61.1383C60.5489 59.546 61.8641 58.2571 63.5334 57.7063ZM70.9361 61.505C71.0704 61.9928 71.1579 62.4822 71.1759 62.9975C71.1947 63.5363 71.1416 64.0306 71.0408 64.5032L68.3471 64.5972C68.3768 64.1037 68.4065 63.6102 68.3885 63.0949C68.3713 62.603 68.3065 62.0893 68.2425 61.5991L70.9361 61.505ZM62.3921 63.3043C62.4101 63.8196 62.4507 64.3106 62.5148 64.8009L59.8211 64.895C59.6876 64.4306 59.6002 63.9412 59.5814 63.4024C59.5634 62.8871 59.6165 62.3928 59.7164 61.8968L62.4101 61.8027C62.3804 62.2962 62.375 62.8124 62.3921 63.3043ZM63.3842 65.521L67.5301 65.3762C67.2758 67.4958 66.5067 68.9766 65.5932 69.0085C64.6562 69.0412 63.8091 67.6168 63.3842 65.521ZM67.2246 68.717C67.7824 67.9002 68.1389 66.6917 68.2796 65.35L70.8093 65.2617C70.2091 66.8774 68.8939 68.1663 67.2246 68.717ZM60.1049 65.6355L62.6346 65.5472C62.8921 66.8749 63.3086 68.0564 63.9219 68.8324C62.2183 68.3994 60.8164 67.2054 60.1049 65.6355Z" fill="white" fill-opacity="0.926"/>
<path d="M94.7964 68.3636C91.2456 68.4876 88.2502 66.0066 88.1161 62.1669C87.9808 58.2933 90.8609 55.5221 94.3947 55.3987C96.7223 55.3174 98.7832 56.3681 99.8918 57.9114L98.5425 59.2173C97.5824 58.026 96.1601 57.2422 94.5122 57.2998C91.9977 57.3876 90.0441 59.412 90.1379 62.0963C90.231 64.7637 92.2671 66.5638 94.8155 66.4748C96.4805 66.4166 97.8798 65.5683 98.7879 64.2948L100.224 65.4694C99.1564 67.0546 97.192 68.2799 94.7964 68.3636ZM105.815 68.0128C103.368 68.0983 101.752 66.6408 101.666 64.1773L101.478 58.7746L103.347 58.7093L103.535 64.095C103.583 65.4712 104.395 66.3273 105.754 66.2799C107.13 66.2318 107.864 65.3217 107.816 63.9455L107.628 58.5598L109.514 58.4939L109.702 63.8966C109.79 66.3941 108.312 67.9256 105.815 68.0128ZM114.83 67.698C113.487 67.7449 112.091 67.1983 111.246 65.901L112.414 64.7715C113.041 65.6852 113.975 66.1119 114.807 66.0828C115.725 66.0508 116.301 65.5033 116.28 64.8917C116.262 64.399 115.945 64.0869 115.461 63.8656C114.908 63.6128 113.739 63.2454 113.167 62.9592C112.146 62.4675 111.659 61.651 111.627 60.7506C111.575 59.2555 112.742 58.075 114.661 58.008C115.8 57.9682 116.97 58.3696 117.718 59.3131L116.671 60.5064C116.068 59.813 115.294 59.5509 114.631 59.574C113.832 59.6019 113.424 60.0924 113.443 60.6191C113.455 60.9759 113.656 61.3601 114.242 61.5948C114.863 61.8453 115.775 62.1366 116.502 62.4855C117.505 62.9608 118.107 63.6542 118.145 64.7415C118.2 66.3045 116.885 67.6262 114.83 67.698ZM125.42 65.0998L126.117 66.5384C125.455 67.0718 124.512 67.3599 123.612 67.3913C121.59 67.4619 120.56 66.2221 120.482 63.9965L120.333 59.7151L118.753 59.7703L118.697 58.1732L120.294 58.1175L120.181 54.8725L122.033 54.8078L122.146 58.0528L125.306 57.9425L125.362 59.5395L122.202 59.6498L122.352 63.9652C122.391 65.0695 122.804 65.7015 123.824 65.6659C124.418 65.6451 124.937 65.4059 125.42 65.0998ZM131.575 67.1303C128.721 67.2299 126.657 65.1417 126.564 62.4743C126.472 59.8409 128.384 57.5968 131.238 57.4971C134.093 57.3975 136.156 59.5027 136.248 62.1361C136.342 64.8035 134.429 67.0306 131.575 67.1303ZM131.514 65.3803C133.179 65.3222 134.422 63.9009 134.363 62.202C134.304 60.537 132.964 59.1719 131.299 59.2301C129.634 59.2882 128.392 60.7435 128.45 62.4084C128.509 64.1074 129.849 65.4385 131.514 65.3803ZM148.694 56.8706C150.868 56.7946 152.415 58.2205 152.501 60.684L152.692 66.1547L150.823 66.22L150.643 61.0551C150.585 59.4071 149.706 58.5873 148.466 58.6306C147.124 58.6775 146.207 59.7131 146.261 61.2591L146.44 66.373L144.571 66.4383L144.392 61.3074C144.336 59.7104 143.488 58.8044 142.197 58.8495C140.872 58.8958 139.921 59.9156 139.976 61.5126L140.154 66.5925L138.285 66.6578L137.965 57.5004L139.8 57.4363L139.846 58.7615C140.34 57.7917 141.354 57.1269 142.56 57.0848C143.716 57.0614 144.874 57.5823 145.439 58.6683C146.032 57.6269 147.283 56.9198 148.694 56.8706ZM161.916 66.0537C160.574 66.1006 159.177 65.554 158.332 64.2567L159.501 63.1272C160.128 64.0409 161.061 64.4676 161.894 64.4385C162.811 64.4065 163.387 63.859 163.366 63.2474C163.349 62.7547 163.032 62.4426 162.548 62.2213C161.995 61.9685 160.825 61.6011 160.254 61.3149C159.233 60.8232 158.745 60.0067 158.714 59.1063C158.662 57.6112 159.828 56.4307 161.748 56.3637C162.886 56.3239 164.057 56.7253 164.804 57.6688L163.757 58.8621C163.155 58.1687 162.38 57.9066 161.718 57.9297C160.919 57.9576 160.511 58.4481 160.529 58.9748C160.542 59.3316 160.742 59.7158 161.329 59.9505C161.95 60.201 162.862 60.4923 163.588 60.8412C164.591 61.3165 165.194 62.0099 165.232 63.0972C165.287 64.6602 163.972 65.9819 161.916 66.0537ZM167.761 55.2522C167.03 55.2777 166.451 54.7536 166.425 54.023C166.4 53.3095 166.943 52.7632 167.673 52.7377C168.37 52.7134 168.932 53.2211 168.957 53.9346C168.982 54.6652 168.457 55.2278 167.761 55.2522ZM169.023 65.5844L167.154 65.6497L166.835 56.4922L168.703 56.427L169.023 65.5844ZM178.07 52.3746L179.955 52.3088L180.405 65.1869L178.553 65.2516L178.509 63.9774C177.81 64.9033 176.811 65.5336 175.486 65.5799C172.835 65.6724 170.825 63.6333 170.731 60.932C170.638 58.2646 172.517 56.0727 175.134 55.9813C176.476 55.9344 177.483 56.5116 178.244 57.3696L178.07 52.3746ZM175.664 63.8556C177.448 63.7933 178.554 62.3598 178.495 60.6608C178.437 58.9959 177.232 57.6261 175.448 57.6884C173.664 57.7507 172.558 59.2011 172.617 60.8661C172.676 62.5651 173.88 63.9179 175.664 63.8556ZM191.281 60.0442C191.294 60.418 191.269 60.691 191.244 60.9471L184.092 61.1968C184.392 62.4961 185.331 63.552 187.217 63.4862C188.27 63.4494 189.496 62.9983 190.291 62.3922L191.121 63.7411C190.311 64.4158 188.855 65.096 187.207 65.1535C183.758 65.274 182.213 62.9295 182.129 60.5169C182.034 57.7986 183.831 55.6776 186.634 55.5797C189.2 55.4901 191.179 57.139 191.281 60.0442ZM186.691 57.1937C185.264 57.2435 184.261 58.2481 184.038 59.6678L189.373 59.4815C189.169 58.0257 188.067 57.1457 186.691 57.1937ZM197.919 55.1856C200.535 55.0943 202.563 57.1497 202.657 59.8341C202.751 62.5185 200.871 64.6934 198.237 64.7854C196.878 64.8328 195.837 64.2398 195.092 63.3643L195.137 64.6725L193.286 64.7371L192.836 51.859L194.705 51.7937L194.881 56.8397C195.579 55.8967 196.56 55.2331 197.919 55.1856ZM197.938 63.0437C199.705 62.982 200.795 61.5661 200.737 59.8841C200.679 58.2192 199.492 56.8658 197.725 56.9275C195.941 56.9898 194.852 58.4397 194.909 60.0876C194.968 61.7696 196.154 63.106 197.938 63.0437ZM211.517 54.9319L213.318 54.869L213.637 64.0264L211.836 64.0893L211.793 62.8321C211.076 63.7417 210.06 64.3725 208.718 64.4194C206.068 64.5119 204.074 62.4553 203.978 59.7199C203.883 56.9846 205.749 54.9122 208.383 54.8202C209.725 54.7733 210.783 55.3488 211.561 56.2061L211.517 54.9319ZM208.913 62.6945C210.68 62.6328 211.82 61.1811 211.761 59.4992C211.703 57.8342 210.465 56.4656 208.698 56.5273C206.897 56.5902 205.808 58.04 205.866 59.722C205.925 61.404 207.129 62.7568 208.913 62.6945ZM216.049 63.9422L215.729 54.7848L217.513 54.7225L217.559 56.0307C218.083 54.9578 218.932 54.4348 220.104 54.3939C220.427 54.3826 220.802 54.4035 221.197 54.5088L221.09 56.3326C220.747 56.2256 220.405 56.1865 220.082 56.1978C218.757 56.244 217.683 57.1491 217.754 59.1878L217.918 63.877L216.049 63.9422Z" fill="white"/>
<rect x="34.5" y="96.1414" width="24" height="24" rx="12" fill="#1D1E20" fill-opacity="0.4"/>
<rect x="35.0267" y="96.6681" width="22.9465" height="22.9465" rx="11.4733" stroke="#E2E8FF" stroke-opacity="0.1" stroke-width="1.05346"/>
<rect x="68.5" y="101.141" width="132" height="14" rx="7" fill="#1D1E20" fill-opacity="0.4"/>
<rect x="69.0267" y="101.668" width="130.947" height="12.9465" rx="6.47327" stroke="#E2E8FF" stroke-opacity="0.1" stroke-width="1.05346"/>
</g>
</g>
<defs>
<filter id="filter0_b_5322_68666" x="-61.5" y="-61.8586" width="440" height="331" filterUnits="userSpaceOnUse" color-interpolation-filters="sRGB">
<feFlood flood-opacity="0" result="BackgroundImageFix"/>
<feGaussianBlur in="BackgroundImageFix" stdDeviation="40"/>
<feComposite in2="SourceAlpha" operator="in" result="effect1_backgroundBlur_5322_68666"/>
<feBlend mode="normal" in="SourceGraphic" in2="effect1_backgroundBlur_5322_68666" result="shape"/>
</filter>
<radialGradient id="paint0_radial_5322_68666" cx="0" cy="0" r="1" gradientUnits="userSpaceOnUse" gradientTransform="translate(40.7005 18.5832) rotate(87.7922) scale(219.896 263.592)">
<stop offset="0.349016" stop-color="white"/>
<stop offset="1" stop-color="white" stop-opacity="0"/>
</radialGradient>
<linearGradient id="paint1_linear_5322_68666" x1="44.7045" y1="63.9099" x2="316.705" y2="63.9099" gradientUnits="userSpaceOnUse">
<stop stop-color="#252525"/>
<stop offset="1" stop-color="#252525"/>
</linearGradient>
<clipPath id="clip0_5322_68666">
<rect width="245" height="150.161" fill="white" transform="translate(0.5 0.141357)"/>
</clipPath>
<clipPath id="clip1_5322_68666">
<rect x="18.5" y="18.1414" width="280" height="171" rx="8" fill="white"/>
</clipPath>
</defs>
</svg>
