<svg width="245" height="152" viewBox="0 0 245 152" fill="none" xmlns="http://www.w3.org/2000/svg">
<mask id="mask0_5322_68521" style="mask-type:alpha" maskUnits="userSpaceOnUse" x="0" y="0" width="245" height="158">
<rect y="0.97998" width="245" height="156.628" fill="url(#paint0_radial_5322_68521)"/>
</mask>
<g mask="url(#mask0_5322_68521)">
<g clip-path="url(#clip0_5322_68521)">
<rect x="18" y="18.98" width="237" height="146" rx="8" fill="#1D1E20" fill-opacity="0.4"/>
<rect x="18.5267" y="19.5067" width="235.947" height="144.947" rx="7.47327" stroke="url(#paint1_linear_5322_68521)" stroke-opacity="0.1" stroke-width="1.05346"/>
<rect x="34.7068" y="31.8424" width="29.9465" height="30.9465" rx="14.9733" stroke="#E2E8FF" stroke-opacity="0.1" stroke-width="1.05346"/>
<g clip-path="url(#clip1_5322_68521)">
<path d="M34.5267 86.48C34.5267 80.9719 38.9919 76.5067 44.5 76.5067H76.5C82.0081 76.5067 86.4733 80.9719 86.4733 86.48C86.4733 91.9881 82.0081 96.4533 76.5 96.4533H44.5C38.9919 96.4533 34.5267 91.9881 34.5267 86.48Z" stroke="#E2E8FF" stroke-opacity="0.1" stroke-width="1.05346"/>
<path d="M47.0206 83.1063H47.9106V90.4963H46.7706V84.6563L45.4906 85.6963L44.8706 84.8863L47.0206 83.1063ZM51.9961 90.4963V85.1063H53.0461V85.8763C53.3761 85.2563 53.8861 84.9663 54.5761 84.9663C54.7661 84.9663 54.9861 84.9863 55.2161 85.0563L55.1161 86.1263C54.9161 86.0563 54.7161 86.0263 54.5261 86.0263C53.7461 86.0263 53.0961 86.5363 53.0961 87.7363V90.4963H51.9961ZM60.8359 87.6963C60.8359 87.9163 60.8159 88.0763 60.7959 88.2263H56.5859C56.7359 88.9963 57.2659 89.6363 58.3759 89.6363C58.9959 89.6363 59.7259 89.3963 60.2059 89.0563L60.6659 89.8663C60.1759 90.2463 59.3059 90.6163 58.3359 90.6163C56.3059 90.6163 55.4459 89.2063 55.4459 87.7863C55.4459 86.1863 56.5459 84.9763 58.1959 84.9763C59.7059 84.9763 60.8359 85.9863 60.8359 87.6963ZM58.1959 85.9263C57.3559 85.9263 56.7459 86.4963 56.5859 87.3263H59.7259C59.6359 86.4663 59.0059 85.9263 58.1959 85.9263ZM64.868 84.9763C66.418 84.9763 67.548 86.2363 67.548 87.8063C67.548 89.3663 66.418 90.6263 64.858 90.6263C64.058 90.6263 63.448 90.2763 63.018 89.7463V92.7163H61.918V85.1063H63.018V85.8863C63.458 85.3463 64.078 84.9763 64.868 84.9763ZM64.708 89.6163C65.758 89.6163 66.438 88.7963 66.438 87.7963C66.438 86.8063 65.758 85.9863 64.708 85.9863C63.658 85.9863 62.988 86.8163 62.988 87.7963C62.988 88.7963 63.658 89.6163 64.708 89.6163ZM69.7465 90.4963H68.6465V82.9163H69.7465V90.4963ZM74.8061 85.1063H76.0161L73.7861 90.9863C73.3061 92.2563 72.6861 92.7863 71.7761 92.7863C71.4061 92.7863 71.0861 92.7063 70.8561 92.5563L71.0161 91.6063C71.2161 91.6963 71.4561 91.7763 71.6861 91.7763C72.1161 91.7763 72.4561 91.5263 72.7461 90.8563L72.9161 90.4563L70.5761 85.1063H71.8461L73.4261 88.9963L74.8061 85.1063Z" fill="white"/>
<rect x="87" y="85.98" width="159" height="1" fill="#373737"/>
</g>
<rect x="35.5267" y="107.507" width="29.9465" height="30.9465" rx="14.9733" stroke="#E2E8FF" stroke-opacity="0.1" stroke-width="1.05346"/>
<rect x="76" y="117.48" width="61" height="11" rx="5.5" fill="#1D1E20" fill-opacity="0.4"/>
<rect x="76.5267" y="118.007" width="59.9465" height="9.94654" rx="4.97327" stroke="#E2E8FF" stroke-opacity="0.1" stroke-width="1.05346"/>
<rect x="147" y="117.48" width="38" height="11" rx="5.5" fill="#1D1E20" fill-opacity="0.4"/>
<rect x="147.527" y="118.007" width="36.9465" height="9.94654" rx="4.97327" stroke="#E2E8FF" stroke-opacity="0.1" stroke-width="1.05346"/>
</g>
</g>
<path d="M79.91 42.6569H76.238V40.7529H85.571V42.6569H81.899V53.3159H79.91V42.6569ZM87.0185 53.3159V40.4299H88.8375V45.3089C89.3645 44.5099 90.4185 43.9149 91.7445 43.9149C93.6145 43.9149 95.3315 45.1389 95.3315 47.7399V53.3159H93.4615V48.2669C93.4615 46.5329 92.5435 45.6489 91.2685 45.6489C89.8575 45.6489 88.8885 46.7199 88.8885 48.2839V53.3159H87.0185ZM97.6435 53.3159V44.1529H99.4285V45.4619C99.9895 44.4079 100.857 43.9149 102.03 43.9149C102.353 43.9149 102.727 43.9489 103.118 44.0679L102.948 45.8869C102.608 45.7679 102.268 45.7169 101.945 45.7169C100.619 45.7169 99.5135 46.5839 99.5135 48.6239V53.3159H97.6435ZM112.671 48.5559C112.671 48.9299 112.637 49.2019 112.603 49.4569H105.446C105.701 50.7659 106.602 51.8539 108.489 51.8539C109.543 51.8539 110.784 51.4459 111.6 50.8679L112.382 52.2449C111.549 52.8909 110.07 53.5199 108.421 53.5199C104.97 53.5199 103.508 51.1229 103.508 48.7089C103.508 45.9889 105.378 43.9319 108.183 43.9319C110.75 43.9319 112.671 45.6489 112.671 48.5559ZM108.183 45.5469C106.755 45.5469 105.718 46.5159 105.446 47.9269H110.784C110.631 46.4649 109.56 45.5469 108.183 45.5469ZM121.668 44.1529H123.47V53.3159H121.668V52.0579C120.92 52.9419 119.883 53.5369 118.54 53.5369C115.888 53.5369 113.967 51.4119 113.967 48.6749C113.967 45.9379 115.905 43.9319 118.54 43.9319C119.883 43.9319 120.92 44.5439 121.668 45.4279V44.1529ZM118.795 51.8199C120.563 51.8199 121.753 50.4089 121.753 48.7259C121.753 47.0599 120.563 45.6489 118.795 45.6489C116.993 45.6489 115.854 47.0599 115.854 48.7429C115.854 50.4259 117.01 51.8199 118.795 51.8199ZM132.972 40.4299H134.859V53.3159H133.006V52.0409C132.275 52.9419 131.255 53.5369 129.929 53.5369C127.277 53.5369 125.339 51.4289 125.339 48.7259C125.339 46.0569 127.294 43.9319 129.912 43.9319C131.255 43.9319 132.241 44.5439 132.972 45.4279V40.4299ZM130.167 51.8199C131.952 51.8199 133.108 50.4259 133.108 48.7259C133.108 47.0599 131.952 45.6489 130.167 45.6489C128.382 45.6489 127.226 47.0599 127.226 48.7259C127.226 50.4259 128.382 51.8199 130.167 51.8199ZM139.991 53.5369C138.648 53.5369 137.271 52.9419 136.472 51.6159L137.679 50.5279C138.274 51.4629 139.192 51.9219 140.025 51.9219C140.943 51.9219 141.538 51.3949 141.538 50.7829C141.538 50.2899 141.232 49.9669 140.756 49.7289C140.212 49.4569 139.056 49.0489 138.495 48.7429C137.492 48.2159 137.033 47.3829 137.033 46.4819C137.033 44.9859 138.24 43.8469 140.161 43.8469C141.3 43.8469 142.456 44.2889 143.17 45.2579L142.082 46.4139C141.504 45.6999 140.739 45.4109 140.076 45.4109C139.277 45.4109 138.852 45.8869 138.852 46.4139C138.852 46.7709 139.039 47.1619 139.617 47.4169C140.229 47.6889 141.13 48.0119 141.844 48.3859C142.83 48.8959 143.408 49.6099 143.408 50.6979C143.408 52.2619 142.048 53.5369 139.991 53.5369Z" fill="white"/>
<defs>
<radialGradient id="paint0_radial_5322_68521" cx="0" cy="0" r="1" gradientUnits="userSpaceOnUse" gradientTransform="translate(270 176.98) rotate(-148.315) scale(265.587 290.223)">
<stop offset="0.355679" stop-color="white" stop-opacity="0"/>
<stop offset="1" stop-color="white"/>
</radialGradient>
<linearGradient id="paint1_linear_5322_68521" x1="205.5" y1="149.98" x2="40.5" y2="27.48" gradientUnits="userSpaceOnUse">
<stop stop-color="#E2E8FF" stop-opacity="0"/>
<stop offset="1" stop-color="white"/>
</linearGradient>
<clipPath id="clip0_5322_68521">
<rect width="237" height="146" fill="white" transform="translate(18 18.98)"/>
</clipPath>
<clipPath id="clip1_5322_68521">
<rect width="218.279" height="32" fill="white" transform="translate(27.3613 69.98)"/>
</clipPath>
</defs>
</svg>
