<svg width="246" height="151" viewBox="0 0 246 151" fill="none" xmlns="http://www.w3.org/2000/svg">
<g clip-path="url(#clip0_5322_68747)">
<mask id="mask0_5322_68747" style="mask-type:alpha" maskUnits="userSpaceOnUse" x="9" y="8" width="254" height="166">
<rect x="9.5" y="8.14136" width="252.973" height="165.841" fill="url(#paint0_radial_5322_68747)"/>
</mask>
<g mask="url(#mask0_5322_68747)">
<g filter="url(#filter0_b_5322_68747)">
<g clip-path="url(#clip1_5322_68747)">
<rect x="18.5" y="18.1414" width="280" height="171" rx="8" fill="#1D1E20" fill-opacity="0.4"/>
<path d="M36.03 39.5784H37.985V52.1414H36.03V39.5784ZM40.6875 52.1414V42.9784H42.5235V44.2704C43.0505 43.3354 44.1045 42.7404 45.4305 42.7404C47.3005 42.7404 49.0345 43.9644 49.0345 46.5654V52.1414H47.1475V47.0924C47.1475 45.3754 46.2295 44.4744 44.9545 44.4744C43.5435 44.4744 42.5575 45.5624 42.5575 47.1264V52.1414H40.6875ZM56.7715 50.1354L57.4175 51.5974C56.7375 52.1074 55.7855 52.3624 54.8845 52.3624C52.8615 52.3624 51.8755 51.0874 51.8755 48.8604V44.5764H50.2945V42.9784H51.8925V39.7314H53.7455V42.9784H56.9075V44.5764H53.7455V48.8944C53.7455 49.9994 54.1365 50.6454 55.1565 50.6454C55.7515 50.6454 56.2785 50.4244 56.7715 50.1354ZM67.1868 47.3814C67.1868 47.7554 67.1528 48.0274 67.1188 48.2824H59.9618C60.2168 49.5914 61.1178 50.6794 63.0048 50.6794C64.0588 50.6794 65.2998 50.2714 66.1158 49.6934L66.8978 51.0704C66.0648 51.7164 64.5858 52.3454 62.9368 52.3454C59.4858 52.3454 58.0238 49.9484 58.0238 47.5344C58.0238 44.8144 59.8938 42.7574 62.6988 42.7574C65.2658 42.7574 67.1868 44.4744 67.1868 47.3814ZM62.6988 44.3724C61.2708 44.3724 60.2338 45.3414 59.9618 46.7524H65.2998C65.1468 45.2904 64.0758 44.3724 62.6988 44.3724ZM76.2003 42.9784H78.0023V51.2064C78.0023 54.1984 75.9963 56.0344 73.0383 56.0344C71.4403 56.0344 69.9953 55.4904 68.9413 54.7254L69.7573 53.2804C70.5733 53.8584 71.7803 54.3684 73.0043 54.3684C74.9933 54.3684 76.1493 53.1274 76.1493 51.4614V50.7984C75.4183 51.6314 74.3983 52.1584 73.0723 52.1584C70.4203 52.1584 68.4823 50.1354 68.4823 47.4494C68.4823 44.7294 70.5563 42.7574 73.1573 42.7574C74.4663 42.7574 75.4693 43.3184 76.2003 44.1514V42.9784ZM73.3103 50.4924C75.0103 50.4924 76.2513 49.1834 76.2513 47.4664C76.2513 45.7324 75.0103 44.4574 73.3103 44.4574C71.6273 44.4574 70.3863 45.7324 70.3863 47.4664C70.3863 49.2004 71.6273 50.4924 73.3103 50.4924ZM80.415 52.1414V42.9784H82.2V44.2874C82.761 43.2334 83.628 42.7404 84.801 42.7404C85.124 42.7404 85.498 42.7744 85.889 42.8934L85.719 44.7124C85.379 44.5934 85.039 44.5424 84.716 44.5424C83.39 44.5424 82.285 45.4094 82.285 47.4494V52.1414H80.415ZM93.9636 42.9784H95.7656V52.1414H93.9636V50.8834C93.2156 51.7674 92.1786 52.3624 90.8356 52.3624C88.1836 52.3624 86.2626 50.2374 86.2626 47.5004C86.2626 44.7634 88.2006 42.7574 90.8356 42.7574C92.1786 42.7574 93.2156 43.3694 93.9636 44.2534V42.9784ZM91.0906 50.6454C92.8586 50.6454 94.0486 49.2344 94.0486 47.5514C94.0486 45.8854 92.8586 44.4744 91.0906 44.4744C89.2886 44.4744 88.1496 45.8854 88.1496 47.5684C88.1496 49.2514 89.3056 50.6454 91.0906 50.6454ZM103.721 50.1354L104.367 51.5974C103.687 52.1074 102.735 52.3624 101.834 52.3624C99.8107 52.3624 98.8247 51.0874 98.8247 48.8604V44.5764H97.2437V42.9784H98.8417V39.7314H100.695V42.9784H103.857V44.5764H100.695V48.8944C100.695 49.9994 101.086 50.6454 102.106 50.6454C102.701 50.6454 103.228 50.4244 103.721 50.1354ZM106.619 41.7714C105.888 41.7714 105.327 41.2274 105.327 40.4964C105.327 39.7824 105.888 39.2554 106.619 39.2554C107.316 39.2554 107.86 39.7824 107.86 40.4964C107.86 41.2274 107.316 41.7714 106.619 41.7714ZM107.52 52.1414H105.65V42.9784H107.52V52.1414ZM114.234 52.3794C111.378 52.3794 109.389 50.2204 109.389 47.5514C109.389 44.9164 111.378 42.7404 114.234 42.7404C117.09 42.7404 119.079 44.9164 119.079 47.5514C119.079 50.2204 117.09 52.3794 114.234 52.3794ZM114.234 50.6284C115.9 50.6284 117.192 49.2514 117.192 47.5514C117.192 45.8854 115.9 44.4744 114.234 44.4744C112.568 44.4744 111.276 45.8854 111.276 47.5514C111.276 49.2514 112.568 50.6284 114.234 50.6284ZM120.956 52.1414V42.9784H122.792V44.2704C123.319 43.3354 124.373 42.7404 125.699 42.7404C127.569 42.7404 129.303 43.9644 129.303 46.5654V52.1414H127.416V47.0924C127.416 45.3754 126.498 44.4744 125.223 44.4744C123.812 44.4744 122.826 45.5624 122.826 47.1264V52.1414H120.956ZM134.318 52.3624C132.975 52.3624 131.598 51.7674 130.799 50.4414L132.006 49.3534C132.601 50.2884 133.519 50.7474 134.352 50.7474C135.27 50.7474 135.865 50.2204 135.865 49.6084C135.865 49.1154 135.559 48.7924 135.083 48.5544C134.539 48.2824 133.383 47.8744 132.822 47.5684C131.819 47.0414 131.36 46.2084 131.36 45.3074C131.36 43.8114 132.567 42.6724 134.488 42.6724C135.627 42.6724 136.783 43.1144 137.497 44.0834L136.409 45.2394C135.831 44.5254 135.066 44.2364 134.403 44.2364C133.604 44.2364 133.179 44.7124 133.179 45.2394C133.179 45.5964 133.366 45.9874 133.944 46.2424C134.556 46.5144 135.457 46.8374 136.171 47.2114C137.157 47.7214 137.735 48.4354 137.735 49.5234C137.735 51.0874 136.375 52.3624 134.318 52.3624Z" fill="white"/>
<path d="M45.3789 113.539C39.5777 113.539 34.8789 118.238 34.8789 124.039C34.8789 128.686 37.8845 132.61 42.0583 134.001C42.5833 134.093 42.7802 133.778 42.7802 133.502C42.7802 133.253 42.767 132.426 42.767 131.547C40.1289 132.032 39.4464 130.904 39.2364 130.313C39.1183 130.011 38.6064 129.079 38.1602 128.83C37.7927 128.633 37.2677 128.147 38.147 128.134C38.9739 128.121 39.5645 128.896 39.7614 129.211C40.7064 130.799 42.2158 130.352 42.8195 130.077C42.9114 129.394 43.187 128.935 43.4889 128.672C41.1527 128.41 38.7114 127.504 38.7114 123.488C38.7114 122.346 39.1183 121.401 39.7877 120.666C39.6827 120.404 39.3152 119.327 39.8927 117.884C39.8927 117.884 40.772 117.608 42.7802 118.96C43.6202 118.724 44.5127 118.606 45.4052 118.606C46.2977 118.606 47.1902 118.724 48.0302 118.96C50.0383 117.595 50.9177 117.884 50.9177 117.884C51.4952 119.327 51.1277 120.404 51.0227 120.666C51.692 121.401 52.0989 122.333 52.0989 123.488C52.0989 127.517 49.6445 128.41 47.3083 128.672C47.6889 129.001 48.017 129.631 48.017 130.615C48.017 132.019 48.0039 133.148 48.0039 133.502C48.0039 133.778 48.2008 134.106 48.7258 134.001C50.8102 133.297 52.6215 131.958 53.9047 130.171C55.1879 128.384 55.8783 126.239 55.8789 124.039C55.8789 118.238 51.1802 113.539 45.3789 113.539Z" fill="#818181"/>
<path d="M69.7246 128.772C66.9971 128.772 65.2539 126.762 65.2539 123.611V123.597C65.2539 120.487 67.0244 118.443 69.7246 118.443C71.9121 118.443 73.4502 119.673 73.8398 121.546L73.8535 121.615H72.6094L72.5889 121.546C72.1855 120.275 71.1943 119.577 69.7246 119.577C67.7695 119.577 66.5117 121.15 66.5117 123.597V123.611C66.5117 126.092 67.749 127.637 69.7314 127.637C71.4951 127.637 72.6846 126.509 72.6846 124.841V124.602H69.916V123.522H73.915V124.725C73.915 127.158 72.2471 128.772 69.7246 128.772ZM76.2542 119.748C75.803 119.748 75.4339 119.379 75.4339 118.928C75.4339 118.477 75.803 118.108 76.2542 118.108C76.7054 118.108 77.0745 118.477 77.0745 118.928C77.0745 119.379 76.7054 119.748 76.2542 119.748ZM75.6527 128.539V121.17H76.8421V128.539H75.6527ZM81.3825 128.594C79.8649 128.594 79.2291 128.033 79.2291 126.625V122.155H78.067V121.17H79.2291V119.263H80.4596V121.17H82.0729V122.155H80.4596V126.324C80.4596 127.193 80.7604 127.541 81.526 127.541C81.7379 127.541 81.8541 127.534 82.0729 127.514V128.526C81.8405 128.567 81.6149 128.594 81.3825 128.594ZM83.5986 128.539V118.244H84.788V122.278H84.8974C85.2666 121.498 85.957 121.04 87.0439 121.04C88.6982 121.04 89.6211 122.018 89.6211 123.768V128.539H88.4316V124.055C88.4316 122.729 87.8847 122.093 86.7089 122.093C85.5332 122.093 84.788 122.886 84.788 124.178V128.539H83.5986ZM93.9221 128.669C92.2473 128.669 91.386 127.685 91.386 125.942V121.17H92.5755V125.655C92.5755 126.981 93.054 127.616 94.2298 127.616C95.5286 127.616 96.219 126.823 96.219 125.531V121.17H97.4085V128.539H96.219V127.439H96.1096C95.7473 128.225 95.0022 128.669 93.9221 128.669ZM102.974 128.669C101.949 128.669 101.129 128.184 100.677 127.364H100.568V128.539H99.3785V118.244H100.568V122.332H100.677C101.081 121.546 101.963 121.04 102.974 121.04C104.847 121.04 106.064 122.537 106.064 124.848V124.862C106.064 127.158 104.84 128.669 102.974 128.669ZM102.701 127.616C104.047 127.616 104.847 126.577 104.847 124.862V124.848C104.847 123.132 104.047 122.093 102.701 122.093C101.361 122.093 100.541 123.146 100.541 124.848V124.862C100.541 126.564 101.361 127.616 102.701 127.616Z" fill="#818181"/>
<path d="M197.379 40.9998C197.379 37.6861 200.065 34.9998 203.379 34.9998H286.379C289.693 34.9998 292.379 37.686 292.379 40.9998V132C292.379 135.313 289.693 138 286.379 138H203.379C200.065 138 197.379 135.313 197.379 132V40.9998Z" fill="#1D1E20" fill-opacity="0.4"/>
<path d="M197.906 40.9998C197.906 37.977 200.356 35.5265 203.379 35.5265H286.379C289.402 35.5265 291.852 37.977 291.852 40.9998V132C291.852 135.023 289.402 137.473 286.379 137.473H203.379C200.356 137.473 197.906 135.023 197.906 132V40.9998Z" stroke="#E2E8FF" stroke-opacity="0.1" stroke-width="1.05346"/>
<rect x="34.3789" y="69.9998" width="131" height="8" rx="4" fill="#1D1E20" fill-opacity="0.4"/>
<rect x="34.9056" y="70.5265" width="129.947" height="6.94654" rx="3.47327" stroke="#E2E8FF" stroke-opacity="0.1" stroke-width="1.05346"/>
<rect x="34.3789" y="85.9998" width="86" height="8" rx="4" fill="#1D1E20" fill-opacity="0.4"/>
<rect x="34.9056" y="86.5265" width="84.9465" height="6.94654" rx="3.47327" stroke="#E2E8FF" stroke-opacity="0.1" stroke-width="1.05346"/>
</g>
<rect x="19" y="18.6414" width="279" height="170" rx="7.5" stroke="#373737"/>
</g>
</g>
</g>
<defs>
<filter id="filter0_b_5322_68747" x="-61.5" y="-61.8586" width="440" height="331" filterUnits="userSpaceOnUse" color-interpolation-filters="sRGB">
<feFlood flood-opacity="0" result="BackgroundImageFix"/>
<feGaussianBlur in="BackgroundImageFix" stdDeviation="40"/>
<feComposite in2="SourceAlpha" operator="in" result="effect1_backgroundBlur_5322_68747"/>
<feBlend mode="normal" in="SourceGraphic" in2="effect1_backgroundBlur_5322_68747" result="shape"/>
</filter>
<radialGradient id="paint0_radial_5322_68747" cx="0" cy="0" r="1" gradientUnits="userSpaceOnUse" gradientTransform="translate(281.379 174) rotate(-150.674) scale(259.733 286.969)">
<stop offset="0.318646" stop-color="white" stop-opacity="0"/>
<stop offset="0.783236" stop-color="white"/>
</radialGradient>
<clipPath id="clip0_5322_68747">
<rect width="245" height="150.161" fill="white" transform="translate(0.5 0.141357)"/>
</clipPath>
<clipPath id="clip1_5322_68747">
<rect x="18.5" y="18.1414" width="280" height="171" rx="8" fill="white"/>
</clipPath>
</defs>
</svg>
